<?xml version="1.0" encoding="UTF-8"?>
<svg id="_Шар_1" data-name="Шар_1" xmlns="http://www.w3.org/2000/svg" xmlns:xlink="http://www.w3.org/1999/xlink" version="1.1" viewBox="0 0 850.39 197.49">
  <!-- Generator: Adobe Illustrator 29.4.0, SVG Export Plug-In . SVG Version: 2.1.0 Build 152)  -->
  <defs>
    <style>
      .st0 {
        fill: url(#_Градієнт_без_назви_14);
      }

      .st1 {
        fill: #1d1d1b;
      }

      .st2 {
        fill: #fff;
      }
    </style>
    <linearGradient id="_Градієнт_без_назви_14" data-name="Градієнт без назви 14" x1="47.74" y1="97.76" x2="803.58" y2="97.76" gradientUnits="userSpaceOnUse">
      <stop offset="0" stop-color="#75c979"/>
      <stop offset="1" stop-color="#389da0"/>
    </linearGradient>
  </defs>
  <g>
    <g>
      <g>
        <path class="st2" d="M102.37,74.76c4.02,2.77,9.14,1.59,11.64-2.56l1.18-2.08h6.65c6.16,0,6.65.07,7.27,1.52.97,2.15,4.99,4.71,7.48,4.71,2.77,0,6.37-2.36,7.41-4.85,1.8-4.43-1.11-10.46-5.54-11.29-3.26-.69-6.79.69-8.52,3.32q-1.52,2.36-7.76,2.56c-5.54.21-6.37.07-7.48-1.18-.69-.76-1.87-2.08-2.63-2.91l-1.39-1.52,1.45-5.75c.83-3.19,1.8-7,2.15-8.59.62-2.42,1.11-2.91,3.6-3.81,1.87-.62,3.46-1.8,4.5-3.39,5.13-7.62-5.54-16.76-12.19-10.53-3.67,3.39-3.81,8.45-.42,11.98l1.8,1.87-1.04,4.43c-3.46,14.06-3.32,13.72-5.68,13.72-2.15,0-4.85,2.49-5.82,5.4-1.04,3.26.35,6.93,3.32,8.94Z"/>
        <path class="st2" d="M178.5,117.5c-.28-3.05-.9-4.5-3.95-8.73-6.23-8.8-7.34-11.71-7.27-18.91,0-3.46.42-7.83.9-9.77.76-3.12.69-4.23-.55-9.14-2.98-11.98-11.57-20.92-27.78-28.88-3.53-1.73-6.51-3.12-6.65-3.12s-.55.62-.97,1.32c-1.32,2.49-.69,3.26,3.67,5.2,11.08,4.92,21.13,13.16,25.01,20.57,2.42,4.64,2.98,9.97,1.87,18.84-1.25,9.77,0,14.75,5.75,23.34,4.71,7.07,5.96,9.21,5.96,10.32,0,.42-1.32,1.04-2.91,1.52-10.11,2.7-11.85,5.75-11.5,20.43.21,9.49-.28,11.15-4.23,13.65-2.29,1.39-3.39,1.52-12.68,1.52s-10.32.07-11.78,1.52c-1.18,1.25-1.59,2.56-1.73,5.89-.28,5.2.35,6.44,2.77,5.82,1.66-.42,1.8-.76,2.01-4.43l.21-3.95h9.7c10.53,0,12.88-.62,16.69-4.36,3.26-3.26,3.81-5.68,3.81-16.28-.07-9.21,0-9.77,1.59-11.91,1.32-1.66,2.56-2.36,5.47-3.05,2.08-.42,4.43-1.45,5.33-2.29,1.32-1.25,1.52-1.94,1.25-5.13Z"/>
        <path class="st2" d="M85.96,87.37c-.69-.21-.9-2.22-.97-7.83,0-7.27.07-7.62,1.73-8.59,6.86-4.16,3.95-15.38-4.02-15.31-1.11,0-2.77.28-3.53.62-2.01.76-4.43,4.02-4.43,5.82,0,2.42-.83,3.05-6.44,4.64-5.13,1.52-5.47,1.52-6.1.42-.42-.62-1.59-1.66-2.7-2.22-7-3.6-13.99,3.32-11.08,11.01.83,2.22,4.5,4.57,7.13,4.57,3.88,0,8.1-3.53,8.1-6.93,0-1.52,2.22-2.63,7.97-4.16,3.32-.83,3.6-.76,6.44,1.11l2.91,1.94v14.62l-2.08.9c-5.47,2.42-5.47,11.5,0,14.34,2.77,1.39,5.47,1.32,8.17-.35,2.77-1.73,4.43-5.33,3.88-8.31-.49-2.15-3.32-5.75-4.99-6.3Z"/>
        <path class="st2" d="M130.84,110.99c-1.18,2.15-.76,5.96.76,7.9,3.46,4.43,8.52,4.85,12.4,1.04,1.73-1.8,2.08-2.63,2.08-5.54s-.35-3.81-2.01-5.61c-1.87-2.15-2.36-2.29-6.44-2.29h-4.43l-5.4-4.78c-5.26-4.71-5.33-4.85-4.92-7.41.62-3.67-1.18-7.27-4.57-8.94-2.98-1.59-4.5-1.66-6.51-.55-2.7,1.45-4.5,3.6-4.92,5.82-.55,2.84.76,6.86,2.63,8.24,1.39.9,1.45,1.25.76,4.64-1.87,9.21-2.49,10.53-4.92,11.01-9.56,1.94-8.04,15.86,1.66,15.86,2.77,0,3.53-.35,5.54-2.49,3.05-3.19,3.26-6.93.48-10.53l-1.8-2.42,1.25-5.26c2.01-8.59,1.94-8.45,4.78-9.42l2.56-.9,5.89,5.2c4.85,4.36,5.68,5.4,5.13,6.44Z"/>
        <path class="st2" d="M59.5,115.84c-1.66-5.13-2.98-16.42-2.36-20.3.28-1.87.14-2.56-.55-2.56-.48,0-1.59-.21-2.36-.42-.97-.28-1.59,0-1.94.76-.62,1.73-.48,9.14.28,14.2,1.66,10.25,6.51,21.54,12.75,29.72,1.8,2.29,4.09,6.03,5.13,8.17,1.59,3.46,1.87,4.92,1.87,10.6,0,4.92-.35,7.2-1.25,8.94-.62,1.32-1.11,2.42-1.04,2.49.69.55,3.33,1.73,3.88,1.73.83,0,1.32-1.25,2.63-6.1,2.49-9.42.14-18.63-7.34-28.61-3.88-5.26-7.62-12.4-9.7-18.63Z"/>
      </g>
      <g>
        <path class="st2" d="M259.6,73.54v55.34h-14.47v-21.95h-18.67v21.95h-14.47v-55.34h14.47v20.44h18.67v-20.44h14.47Z"/>
        <path class="st2" d="M308.97,115.93v12.95h-35.24v-55.34h34.57v12.87h-20.18v8.24h18.59v12.62h-18.59v8.58h20.86v.08Z"/>
        <g>
          <polygon class="st2" points="368.94 73.29 368.94 128.88 354.39 128.88 354.39 110.38 354.55 101.21 325.62 129.05 321.08 129.05 321.08 73.54 335.63 73.54 335.63 90.95 335.38 100.79 364.14 73.37 368.94 73.37 368.94 73.29"/>
          <path class="st2" d="M333.11,55.71h8.75c0,3.95,1.51,6.22,4.96,6.22,3.95,0,5.3-2.27,5.3-6.22h8.75c-.25,10.09-6.22,14.47-13.88,14.47s-13.71-4.37-13.88-14.47Z"/>
        </g>
        <path class="st2" d="M686.34,73.54h-14.47c0,13.46-2.86,20.61-12.7,20.61h-1.43v-20.61h-14.47v55.34h14.47v-21.87h2.1c1.51,0,2.94-.08,4.37-.25l10.18,22.12h15.81v-.76l-13.04-26.41c6.56-5.63,9.17-15.31,9.17-28.17Z"/>
        <path class="st2" d="M721.25,94.82h-.5l-10.93-21.28h-16.4v.67l20.61,35.91-1.35,2.86c-1.93,3.95-4.21,4.63-7.15,4.63-2.44,0-3.78-.34-5.72-1.01l-3.03,11.35c3.95,1.35,6.73,1.77,10.18,1.77,10.93,0,15.56-4.96,19.6-13.88l19.09-41.63v-.67h-15.47l-8.92,21.28Z"/>
        <path class="st2" d="M789.37,107.77c-2.02,5.05-6.56,8.24-12.53,8.24-8.16,0-13.62-5.97-13.62-14.8s5.47-14.8,13.62-14.8c5.55,0,9.84,2.69,12.03,7.23h14.38c-2.94-12.53-12.36-20.94-27-20.94-16.32,0-27.84,11.77-27.84,28.51s11.61,28.51,27.92,28.51c15.05,0,24.73-8.75,27.25-21.95h-14.21Z"/>
        <path class="st2" d="M407.37,73.54h-24.31v55.34h14.47v-15.22h9.84c12.28,0,20.69-7.99,20.69-20.1s-8.16-20.02-20.69-20.02ZM405.94,101.13h-8.41v-14.97h8.41c4.63,0,7.4,2.69,7.4,7.4s-2.78,7.57-7.4,7.57Z"/>
        <path class="st2" d="M463.97,72.7c-16.99,0-29.02,11.77-29.02,28.51s12.03,28.51,29.02,28.51,29.02-11.77,29.02-28.51-12.03-28.51-29.02-28.51ZM463.97,116.01c-8.49,0-14.21-5.97-14.21-14.8s5.72-14.8,14.21-14.8,14.21,5.97,14.21,14.8-5.72,14.8-14.21,14.8Z"/>
        <path class="st2" d="M540.26,78.5v-5.89h-13.54v5.89c-14.21.59-25.99,7.82-25.99,22.62s11.77,21.95,26.07,22.46v6.14h13.37v-6.14c14.3-.5,26.16-6.9,26.07-22.46,0-15.56-11.27-22.04-25.99-22.62ZM526.97,111.39c-5.72-.34-11.77-2.35-11.77-10.26s5.63-9.92,11.77-10.18v20.44ZM540.09,111.39v-20.44c6.14.25,11.77,2.27,11.77,10.18s-5.97,9.92-11.77,10.26Z"/>
        <path class="st2" d="M603.08,72.7c-16.99,0-29.02,11.77-29.02,28.51s12.03,28.51,29.02,28.51,29.02-11.77,29.02-28.51-12.03-28.51-29.02-28.51ZM603.08,116.01c-8.49,0-14.21-5.97-14.21-14.8s5.72-14.8,14.21-14.8,14.21,5.97,14.21,14.8-5.72,14.8-14.21,14.8Z"/>
      </g>
    </g>
    <g>
      <g>
        <path class="st0" d="M102.37,74.76c4.02,2.77,9.14,1.59,11.64-2.56l1.18-2.08h6.65c6.16,0,6.65.07,7.27,1.52.97,2.15,4.99,4.71,7.48,4.71,2.77,0,6.37-2.36,7.41-4.85,1.8-4.43-1.11-10.46-5.54-11.29-3.26-.69-6.79.69-8.52,3.32q-1.52,2.36-7.76,2.56c-5.54.21-6.37.07-7.48-1.18-.69-.76-1.87-2.08-2.63-2.91l-1.39-1.52,1.45-5.75c.83-3.19,1.8-7,2.15-8.59.62-2.42,1.11-2.91,3.6-3.81,1.87-.62,3.46-1.8,4.5-3.39,5.13-7.62-5.54-16.76-12.19-10.53-3.67,3.39-3.81,8.45-.42,11.98l1.8,1.87-1.04,4.43c-3.46,14.06-3.32,13.72-5.68,13.72-2.15,0-4.85,2.49-5.82,5.4-1.04,3.26.35,6.93,3.32,8.94Z"/>
        <path class="st0" d="M178.5,117.5c-.28-3.05-.9-4.5-3.95-8.73-6.23-8.8-7.34-11.71-7.27-18.91,0-3.46.42-7.83.9-9.77.76-3.12.69-4.23-.55-9.14-2.98-11.98-11.57-20.92-27.78-28.88-3.53-1.73-6.51-3.12-6.65-3.12s-.55.62-.97,1.32c-1.32,2.49-.69,3.26,3.67,5.2,11.08,4.92,21.13,13.16,25.01,20.57,2.42,4.64,2.98,9.97,1.87,18.84-1.25,9.77,0,14.75,5.75,23.34,4.71,7.07,5.96,9.21,5.96,10.32,0,.42-1.32,1.04-2.91,1.52-10.11,2.7-11.85,5.75-11.5,20.43.21,9.49-.28,11.15-4.23,13.65-2.29,1.39-3.39,1.52-12.68,1.52s-10.32.07-11.78,1.52c-1.18,1.25-1.59,2.56-1.73,5.89-.28,5.2.35,6.44,2.77,5.82,1.66-.42,1.8-.76,2.01-4.43l.21-3.95h9.7c10.53,0,12.88-.62,16.69-4.36,3.26-3.26,3.81-5.68,3.81-16.28-.07-9.21,0-9.77,1.59-11.91,1.32-1.66,2.56-2.36,5.47-3.05,2.08-.42,4.43-1.45,5.33-2.29,1.32-1.25,1.52-1.94,1.25-5.13Z"/>
        <path class="st0" d="M85.96,87.37c-.69-.21-.9-2.22-.97-7.83,0-7.27.07-7.62,1.73-8.59,6.86-4.16,3.95-15.38-4.02-15.31-1.11,0-2.77.28-3.53.62-2.01.76-4.43,4.02-4.43,5.82,0,2.42-.83,3.05-6.44,4.64-5.13,1.52-5.47,1.52-6.1.42-.42-.62-1.59-1.66-2.7-2.22-7-3.6-13.99,3.32-11.08,11.01.83,2.22,4.5,4.57,7.13,4.57,3.88,0,8.1-3.53,8.1-6.93,0-1.52,2.22-2.63,7.97-4.16,3.32-.83,3.6-.76,6.44,1.11l2.91,1.94v14.62l-2.08.9c-5.47,2.42-5.47,11.5,0,14.34,2.77,1.39,5.47,1.32,8.17-.35,2.77-1.73,4.43-5.33,3.88-8.31-.49-2.15-3.32-5.75-4.99-6.3Z"/>
        <path class="st0" d="M130.84,110.99c-1.18,2.15-.76,5.96.76,7.9,3.46,4.43,8.52,4.85,12.4,1.04,1.73-1.8,2.08-2.63,2.08-5.54s-.35-3.81-2.01-5.61c-1.87-2.15-2.36-2.29-6.44-2.29h-4.43l-5.4-4.78c-5.26-4.71-5.33-4.85-4.92-7.41.62-3.67-1.18-7.27-4.57-8.94-2.98-1.59-4.5-1.66-6.51-.55-2.7,1.45-4.5,3.6-4.92,5.82-.55,2.84.76,6.86,2.63,8.24,1.39.9,1.45,1.25.76,4.64-1.87,9.21-2.49,10.53-4.92,11.01-9.56,1.94-8.04,15.86,1.66,15.86,2.77,0,3.53-.35,5.54-2.49,3.05-3.19,3.26-6.93.48-10.53l-1.8-2.42,1.25-5.26c2.01-8.59,1.94-8.45,4.78-9.42l2.56-.9,5.89,5.2c4.85,4.36,5.68,5.4,5.13,6.44Z"/>
        <path class="st0" d="M59.5,115.84c-1.66-5.13-2.98-16.42-2.36-20.3.28-1.87.14-2.56-.55-2.56-.48,0-1.59-.21-2.36-.42-.97-.28-1.59,0-1.94.76-.62,1.73-.48,9.14.28,14.2,1.66,10.25,6.51,21.54,12.75,29.72,1.8,2.29,4.09,6.03,5.13,8.17,1.59,3.46,1.87,4.92,1.87,10.6,0,4.92-.35,7.2-1.25,8.94-.62,1.32-1.11,2.42-1.04,2.49.69.55,3.33,1.73,3.88,1.73.83,0,1.32-1.25,2.63-6.1,2.49-9.42.14-18.63-7.34-28.61-3.88-5.26-7.62-12.4-9.7-18.63Z"/>
      </g>
      <g>
        <path class="st0" d="M259.6,73.54v55.34h-14.47v-21.95h-18.67v21.95h-14.47v-55.34h14.47v20.44h18.67v-20.44h14.47Z"/>
        <path class="st0" d="M308.97,115.93v12.95h-35.24v-55.34h34.57v12.87h-20.18v8.24h18.59v12.62h-18.59v8.58h20.86v.08Z"/>
        <g>
          <polygon class="st0" points="368.94 73.29 368.94 128.88 354.39 128.88 354.39 110.38 354.55 101.21 325.62 129.05 321.08 129.05 321.08 73.54 335.63 73.54 335.63 90.95 335.38 100.79 364.14 73.37 368.94 73.37 368.94 73.29"/>
          <path class="st0" d="M333.11,55.71h8.75c0,3.95,1.51,6.22,4.96,6.22,3.95,0,5.3-2.27,5.3-6.22h8.75c-.25,10.09-6.22,14.47-13.88,14.47s-13.71-4.37-13.88-14.47Z"/>
        </g>
        <path class="st0" d="M686.34,73.54h-14.47c0,13.46-2.86,20.61-12.7,20.61h-1.43v-20.61h-14.47v55.34h14.47v-21.87h2.1c1.51,0,2.94-.08,4.37-.25l10.18,22.12h15.81v-.76l-13.04-26.41c6.56-5.63,9.17-15.31,9.17-28.17Z"/>
        <path class="st0" d="M721.25,94.82h-.5l-10.93-21.28h-16.4v.67l20.61,35.91-1.35,2.86c-1.93,3.95-4.21,4.63-7.15,4.63-2.44,0-3.78-.34-5.72-1.01l-3.03,11.35c3.95,1.35,6.73,1.77,10.18,1.77,10.93,0,15.56-4.96,19.6-13.88l19.09-41.63v-.67h-15.47l-8.92,21.28Z"/>
        <path class="st0" d="M789.37,107.77c-2.02,5.05-6.56,8.24-12.53,8.24-8.16,0-13.62-5.97-13.62-14.8s5.47-14.8,13.62-14.8c5.55,0,9.84,2.69,12.03,7.23h14.38c-2.94-12.53-12.36-20.94-27-20.94-16.32,0-27.84,11.77-27.84,28.51s11.61,28.51,27.92,28.51c15.05,0,24.73-8.75,27.25-21.95h-14.21Z"/>
        <path class="st0" d="M407.37,73.54h-24.31v55.34h14.47v-15.22h9.84c12.28,0,20.69-7.99,20.69-20.1s-8.16-20.02-20.69-20.02ZM405.94,101.13h-8.41v-14.97h8.41c4.63,0,7.4,2.69,7.4,7.4s-2.78,7.57-7.4,7.57Z"/>
        <path class="st0" d="M463.97,72.7c-16.99,0-29.02,11.77-29.02,28.51s12.03,28.51,29.02,28.51,29.02-11.77,29.02-28.51-12.03-28.51-29.02-28.51ZM463.97,116.01c-8.49,0-14.21-5.97-14.21-14.8s5.72-14.8,14.21-14.8,14.21,5.97,14.21,14.8-5.72,14.8-14.21,14.8Z"/>
        <path class="st0" d="M540.26,78.5v-5.89h-13.54v5.89c-14.21.59-25.99,7.82-25.99,22.62s11.77,21.95,26.07,22.46v6.14h13.37v-6.14c14.3-.5,26.16-6.9,26.07-22.46,0-15.56-11.27-22.04-25.99-22.62ZM526.97,111.39c-5.72-.34-11.77-2.35-11.77-10.26s5.63-9.92,11.77-10.18v20.44ZM540.09,111.39v-20.44c6.14.25,11.77,2.27,11.77,10.18s-5.97,9.92-11.77,10.26Z"/>
        <path class="st0" d="M603.08,72.7c-16.99,0-29.02,11.77-29.02,28.51s12.03,28.51,29.02,28.51,29.02-11.77,29.02-28.51-12.03-28.51-29.02-28.51ZM603.08,116.01c-8.49,0-14.21-5.97-14.21-14.8s5.72-14.8,14.21-14.8,14.21,5.97,14.21,14.8-5.72,14.8-14.21,14.8Z"/>
      </g>
    </g>
  </g>
  <g>
    <polygon class="st1" points="219.71 165.57 213 155.52 212.04 155.52 212.04 170.66 213.83 170.66 213.83 159.93 219.24 167.91 220.09 167.91 225.5 159.82 225.5 170.66 227.29 170.66 227.29 155.52 226.33 155.52 219.71 165.57"/>
    <polygon class="st1" points="232.52 164.04 239.61 164.04 239.61 162.38 232.52 162.38 232.52 157.31 240.93 157.31 240.93 155.65 230.73 155.65 230.73 170.66 241.38 170.66 241.38 169 232.52 169 232.52 164.04"/>
    <path class="st1" d="M256.58,155.65h-10.77v7.32c0,3.17-.46,5.17-1.38,6.03h-1.53v5.17h1.7v-3.51h12.77v3.51h1.7v-5.17h-2.49v-13.35ZM254.79,169h-8.32c.75-1.02,1.13-2.97,1.13-5.83v-5.85h7.2v11.69Z"/>
    <polygon class="st1" points="263.37 167.19 263.37 155.65 261.58 155.65 261.58 170.83 262.5 170.83 272.63 159.12 272.63 170.66 274.42 170.66 274.42 155.46 273.51 155.46 263.37 167.19"/>
    <path class="st1" d="M286.96,163.5c-1.08.36-2.35.53-3.81.53-2.91,0-4.36-1.38-4.36-4.15v-4.24h-1.79v4.49c0,1.94.55,3.36,1.66,4.24,1.11.88,2.58,1.32,4.43,1.32,1.58,0,2.87-.2,3.87-.6v5.56h1.79v-15.01h-1.79v7.86Z"/>
    <polygon class="st1" points="302.48 162.95 293.99 162.95 293.99 155.65 292.2 155.65 292.2 170.66 293.99 170.66 293.99 164.61 302.48 164.61 302.48 170.66 304.27 170.66 304.27 155.65 302.48 155.65 302.48 162.95"/>
    <polygon class="st1" points="309.51 167.19 309.51 155.65 307.72 155.65 307.72 170.83 308.64 170.83 318.77 159.12 318.77 170.66 320.56 170.66 320.56 155.46 319.64 155.46 309.51 167.19"/>
    <polygon class="st1" points="325.79 167.19 325.79 155.65 324.01 155.65 324.01 170.83 324.92 170.83 335.06 159.12 335.06 170.66 336.84 170.66 336.84 155.46 335.93 155.46 325.79 167.19"/>
    <path class="st1" d="M330.41,154.37c2.07,0,3.19-.98,3.36-2.94h-1.34c-.16,1.08-.83,1.62-2.02,1.62s-1.87-.54-2.04-1.62h-1.32c.16,1.96,1.28,2.94,3.36,2.94Z"/>
    <polygon class="st1" points="357.43 155.65 355.64 155.65 355.64 169 347.28 169 347.28 155.65 345.49 155.65 345.49 170.66 358.22 170.66 358.22 174.17 359.92 174.17 359.92 169 357.43 169 357.43 155.65"/>
    <polygon class="st1" points="363.56 164.04 370.65 164.04 370.65 162.38 363.56 162.38 363.56 157.31 371.97 157.31 371.97 155.65 361.77 155.65 361.77 170.66 372.42 170.66 372.42 169 363.56 169 363.56 164.04"/>
    <polygon class="st1" points="385.3 162.95 376.81 162.95 376.81 155.65 375.02 155.65 375.02 170.66 376.81 170.66 376.81 164.61 385.3 164.61 385.3 170.66 387.09 170.66 387.09 155.65 385.3 155.65 385.3 162.95"/>
    <polygon class="st1" points="389.49 157.31 394.65 157.31 394.65 170.66 396.48 170.66 396.48 157.31 401.63 157.31 401.63 155.65 389.49 155.65 389.49 157.31"/>
    <path class="st1" d="M410,155.65h-5.94v15.01h1.79v-4.75h3.58c4.06,0,6.09-1.73,6.09-5.19s-1.84-5.07-5.51-5.07ZM409.31,164.25h-3.47v-6.94h3.94c2.58,0,3.87,1.14,3.87,3.43s-1.45,3.51-4.34,3.51Z"/>
    <polygon class="st1" points="430.67 165.57 423.96 155.52 423 155.52 423 170.66 424.79 170.66 424.79 159.93 430.2 167.91 431.05 167.91 436.46 159.82 436.46 170.66 438.25 170.66 438.25 155.52 437.29 155.52 430.67 165.57"/>
    <path class="st1" d="M446.98,155.5l-6.79,15.16h1.96l1.62-3.62h7.5l1.64,3.62h1.96l-6.81-15.16h-1.06ZM450.49,165.38h-5.94l1.58-3.83,1.38-3.24,1.38,3.24,1.6,3.83Z"/>
    <path class="st1" d="M462.73,155.65h-5.94v15.01h1.79v-4.75h3.58c4.06,0,6.09-1.73,6.09-5.19s-1.84-5.07-5.51-5.07ZM462.05,164.25h-3.47v-6.94h3.94c2.58,0,3.87,1.14,3.87,3.43s-1.45,3.51-4.34,3.51Z"/>
    <polygon class="st1" points="469.5 157.31 474.65 157.31 474.65 170.66 476.48 170.66 476.48 157.31 481.64 157.31 481.64 155.65 469.5 155.65 469.5 157.31"/>
    <polygon class="st1" points="485.85 167.19 485.85 155.65 484.06 155.65 484.06 170.83 484.98 170.83 495.11 159.12 495.11 170.66 496.9 170.66 496.9 155.46 495.98 155.46 485.85 167.19"/>
    <polygon class="st1" points="517.7 155.65 515.47 155.65 510.91 161.82 506.35 155.65 504.12 155.65 509.65 163.06 504.03 170.66 506.29 170.66 510.91 164.33 515.53 170.66 517.76 170.66 512.16 163.06 517.7 155.65"/>
    <path class="st1" d="M524.98,155.5l-6.79,15.16h1.96l1.62-3.62h7.5l1.64,3.62h1.96l-6.81-15.16h-1.06ZM528.49,165.38h-5.94l1.58-3.83,1.38-3.24,1.38,3.24,1.6,3.83Z"/>
    <path class="st1" d="M543.65,162.8c1.49-.45,2.24-1.56,2.24-3.32,0-1.22-.41-2.16-1.23-2.83-.82-.67-2.02-1-3.6-1h-6.26v15.01h6.98c1.8,0,3.13-.36,3.97-1.08.84-.72,1.27-1.79,1.27-3.23,0-1.9-1.12-3.09-3.36-3.56ZM536.58,157.31h4.49c.94,0,1.66.19,2.18.56s.78.94.78,1.69c0,.89-.26,1.55-.78,1.97s-1.35.63-2.48.63h-4.19v-4.85ZM544.37,168.34c-.53.44-1.39.66-2.59.66h-5.19v-5.17h4.64c2.63,0,3.94.85,3.94,2.53,0,.88-.27,1.54-.8,1.98Z"/>
    <path class="st1" d="M555.55,162.76l-1.06,2.15-4.83-9.26h-2.09l5.96,11.2c-.5.99-.96,1.64-1.37,1.95-.42.31-.91.46-1.48.46-.41,0-.79-.05-1.13-.15v1.66c.5.1.94.15,1.32.15,1.08,0,1.92-.28,2.51-.85.6-.57,1.24-1.53,1.94-2.9l5.9-11.52h-2.06l-3.6,7.11Z"/>
    <polygon class="st1" points="573.29 162.95 564.79 162.95 564.79 155.65 563 155.65 563 170.66 564.79 170.66 564.79 164.61 573.29 164.61 573.29 170.66 575.08 170.66 575.08 155.65 573.29 155.65 573.29 162.95"/>
    <polygon class="st1" points="590.21 155.65 587.7 155.65 580.31 163.01 580.31 155.65 578.52 155.65 578.52 170.66 580.31 170.66 580.31 163.42 588.36 170.66 591.09 170.66 582.72 163.12 590.21 155.65"/>
    <polygon class="st1" points="604.97 155.46 594.83 167.19 594.83 155.65 593.04 155.65 593.04 170.83 593.96 170.83 604.09 159.12 604.09 170.66 605.88 170.66 605.88 155.46 604.97 155.46"/>
  </g>
</svg>