<svg xmlns="http://www.w3.org/2000/svg" id="_Шар_1" data-name="Шар_1" version="1.1" viewBox="218.21 339.71 555.71 312.71">
  <!-- Generator: Adobe Illustrator 29.8.2, SVG Export Plug-In . SVG Version: 2.1.1 Build 3)  -->
  <defs>
    <style>
      .st0 {
        fill: #ffbf02;
      }

      .st1 {
        fill: #fff;
      }
    </style>
  </defs>
  <path class="st0" d="M464.44,541.28v10.06h-30.85v5.67h18.07c2.66,0,5.03.33,7.12.99,2.08.66,3.85,1.61,5.29,2.85,1.44,1.24,2.54,2.74,3.31,4.52.76,1.78,1.15,3.77,1.15,5.98s-.38,4.19-1.15,5.96c-.77,1.76-1.87,3.26-3.31,4.5-1.45,1.24-3.21,2.19-5.29,2.86-2.09.67-4.46,1.01-7.12,1.01h-29.77v-44.38h42.55ZM451.66,575.6c3.45,0,5.17-1.42,5.17-4.27s-1.72-4.27-5.17-4.27h-18.07v8.54h18.07Z"/>
  <rect class="st0" x="475.34" y="541.28" width="11.7" height="44.38"/>
  <path class="st0" d="M546.05,541.28v44.38h-11.7v-34.32h-23.03v14.57c0,3.14-.22,5.82-.65,8.06-.43,2.24-1.06,4.12-1.87,5.63-.81,1.52-1.79,2.71-2.94,3.59-1.15.88-2.42,1.52-3.82,1.94-1.4.41-2.93.64-4.58.68-1.65.04-3.37,0-5.17-.15v-10.06c.85.16,1.71.18,2.58.06.88-.13,1.66-.53,2.37-1.21.7-.68,1.27-1.7,1.72-3.05.44-1.35.66-3.18.66-5.49v-24.63h46.42Z"/>
  <path class="st0" d="M565.49,541.28v15.04h20.12c2.7,0,5.03.37,6.98,1.11,1.95.74,3.55,1.77,4.8,3.06,1.25,1.3,2.17,2.85,2.77,4.64.6,1.79.9,3.74.9,5.85s-.3,4.05-.9,5.83c-.6,1.78-1.53,3.33-2.77,4.64-1.25,1.31-2.85,2.34-4.8,3.08-1.95.74-4.28,1.11-6.98,1.11h-31.81v-44.38h11.7ZM585.6,575.6c1.11,0,2.01-.39,2.71-1.18.69-.78,1.04-1.93,1.04-3.43s-.35-2.62-1.04-3.42c-.69-.79-1.6-1.19-2.71-1.19h-20.12v9.22h20.12Z"/>
  <polygon class="st0" points="667.71 585.66 607.54 585.66 607.54 541.28 619.24 541.28 619.24 575.6 631.77 575.6 631.77 541.28 643.47 541.28 643.47 575.6 656.01 575.6 656.01 541.28 667.71 541.28 667.71 585.66"/>
  <polygon class="st0" points="718.04 558.52 718.04 568.05 686.37 568.05 686.37 575.6 719.89 575.6 719.89 585.66 674.68 585.66 674.68 541.28 719.4 541.28 719.4 551.34 686.37 551.34 686.37 558.52 718.04 558.52"/>
  <g>
    <path class="st1" d="M535.54,406.47v44.38h-11.7v-34.32h-23.02v14.57c0,3.14-.22,5.82-.65,8.06-.43,2.24-1.06,4.12-1.87,5.63-.82,1.52-1.79,2.71-2.94,3.59-1.15.88-2.42,1.52-3.82,1.94-1.41.41-2.93.64-4.58.68-1.66.04-3.38,0-5.17-.15v-10.06c.85.16,1.71.18,2.59.06.88-.13,1.66-.53,2.37-1.21.7-.68,1.27-1.7,1.72-3.05.44-1.35.66-3.18.66-5.49v-24.63h46.42Z"/>
    <path class="st1" d="M554.98,406.46v15.04h20.11c2.7,0,5.03.37,6.98,1.11,1.95.74,3.55,1.77,4.79,3.06,1.25,1.3,2.17,2.85,2.77,4.64.6,1.79.9,3.74.9,5.85s-.3,4.05-.9,5.83c-.6,1.78-1.52,3.33-2.77,4.64-1.25,1.31-2.85,2.34-4.79,3.08-1.95.74-4.28,1.11-6.98,1.11h-31.81v-44.38h11.7ZM575.09,440.79c1.11,0,2.02-.39,2.71-1.18.69-.78,1.03-1.93,1.03-3.43s-.35-2.62-1.03-3.42c-.69-.79-1.6-1.19-2.71-1.19h-20.11v9.22h20.11Z"/>
    <path class="st1" d="M597.03,450.84v-44.38h29.49c2.35,0,4.42.18,6.19.54,1.78.36,3.3.84,4.58,1.45,1.28.61,2.34,1.32,3.19,2.12.85.8,1.52,1.66,2.01,2.57.49.9.84,1.84,1.05,2.8.21.96.31,1.88.31,2.77,0,1.09-.17,2.13-.52,3.11-.35.98-.85,1.87-1.5,2.68-.65.8-1.43,1.5-2.34,2.07-.91.58-1.93,1.01-3.06,1.3,1.32.33,2.52.78,3.6,1.35,1.09.57,2.01,1.27,2.77,2.09.77.83,1.35,1.78,1.76,2.85.41,1.07.62,2.28.62,3.62,0,1.61-.27,3.19-.8,4.75-.53,1.56-1.48,2.96-2.83,4.19-1.35,1.24-3.18,2.23-5.48,2.98-2.3.75-5.23,1.13-8.77,1.13h-30.26ZM626.12,424.26c1.09,0,2.01-.11,2.74-.34.73-.22,1.32-.54,1.76-.93.44-.39.76-.84.94-1.36.18-.52.28-1.07.28-1.67s-.09-1.12-.28-1.63c-.19-.5-.49-.93-.93-1.28-.43-.35-1.02-.63-1.75-.84-.73-.21-1.65-.31-2.74-.31h-17.42v8.36h17.39ZM626.4,441.41c2.41,0,4.15-.37,5.2-1.1,1.05-.73,1.58-1.87,1.58-3.42s-.53-2.69-1.58-3.42c-1.05-.73-2.77-1.1-5.17-1.1h-17.7v9.04h17.67Z"/>
    <rect class="st1" x="651.99" y="406.46" width="11.7" height="44.38"/>
    <path class="st1" d="M671.74,450.84v-44.38h29.49c2.35,0,4.42.18,6.19.54,1.78.36,3.3.84,4.58,1.45,1.28.61,2.34,1.32,3.19,2.12.85.8,1.52,1.66,2.01,2.57.49.9.85,1.84,1.05,2.8.21.96.31,1.88.31,2.77,0,1.09-.18,2.13-.53,3.11-.35.98-.85,1.87-1.5,2.68-.65.8-1.43,1.5-2.34,2.07-.91.58-1.93,1.01-3.06,1.3,1.32.33,2.52.78,3.6,1.35,1.09.57,2.01,1.27,2.77,2.09.77.83,1.35,1.78,1.77,2.85.41,1.07.62,2.28.62,3.62,0,1.61-.27,3.19-.8,4.75-.53,1.56-1.48,2.96-2.83,4.19-1.35,1.24-3.18,2.23-5.48,2.98-2.3.75-5.23,1.13-8.78,1.13h-30.26ZM700.83,424.26c1.1,0,2.01-.11,2.74-.34.73-.22,1.32-.54,1.76-.93.44-.39.76-.84.94-1.36.19-.52.28-1.07.28-1.67s-.09-1.12-.28-1.63c-.19-.5-.49-.93-.93-1.28-.43-.35-1.02-.63-1.75-.84-.73-.21-1.64-.31-2.74-.31h-17.42v8.36h17.39ZM701.11,441.41c2.41,0,4.15-.37,5.2-1.1,1.05-.73,1.58-1.87,1.58-3.42s-.53-2.69-1.58-3.42c-1.05-.73-2.78-1.1-5.17-1.1h-17.7v9.04h17.67Z"/>
  </g>
  <g>
    <polygon class="st1" points="492.29 502.15 506.12 473.96 521.47 473.96 521.47 518.34 509.77 518.34 509.77 491.6 496.62 518.34 487.95 518.34 474.8 491.6 474.8 518.34 463.1 518.34 463.1 473.96 478.45 473.96 492.29 502.15"/>
    <path class="st1" d="M527.97,496.15c0-2.17.28-4.25.84-6.25.55-2,1.39-3.87,2.5-5.6,1.11-1.73,2.51-3.31,4.18-4.73,1.67-1.42,3.62-2.64,5.85-3.65,2.23-1.01,4.73-1.79,7.52-2.35,2.79-.56,5.85-.84,9.19-.84s6.41.28,9.19.84c2.79.56,5.29,1.34,7.52,2.35,2.23,1.01,4.18,2.23,5.85,3.65,1.67,1.42,3.07,3,4.18,4.73,1.11,1.73,1.95,3.6,2.51,5.6.56,2,.84,4.08.84,6.25,0,3.26-.63,6.31-1.87,9.14-1.25,2.84-3.13,5.32-5.63,7.44-2.51,2.12-5.65,3.79-9.41,5.01-3.77,1.22-8.16,1.82-13.17,1.82s-9.4-.61-13.17-1.82c-3.77-1.22-6.9-2.89-9.41-5.01-2.51-2.13-4.38-4.61-5.63-7.44-1.25-2.84-1.87-5.88-1.87-9.14M539.98,496.15c0,1.75.32,3.43.96,5.05.64,1.61,1.67,3.03,3.1,4.27,1.42,1.24,3.29,2.22,5.59,2.96,2.3.73,5.11,1.1,8.43,1.1s6.13-.37,8.43-1.1c2.3-.73,4.17-1.72,5.59-2.96,1.42-1.24,2.45-2.66,3.1-4.27.64-1.61.96-3.29.96-5.05s-.32-3.44-.96-5.04c-.64-1.61-1.67-3.03-3.1-4.27-1.42-1.24-3.29-2.22-5.59-2.96-2.3-.73-5.11-1.1-8.43-1.1s-6.13.37-8.43,1.1c-2.3.73-4.17,1.72-5.59,2.96-1.42,1.24-2.46,2.66-3.1,4.27-.64,1.61-.96,3.29-.96,5.04"/>
    <polygon class="st1" points="718.04 491.2 718.04 500.73 686.37 500.73 686.37 508.28 719.89 508.28 719.89 518.34 674.68 518.34 674.68 473.96 719.4 473.96 719.4 484.01 686.37 484.01 686.37 491.2 718.04 491.2"/>
    <polygon class="st1" points="643.64 495.96 668.54 473.96 666.08 473.96 652.71 473.96 634.49 490.05 633.78 490.69 633.78 473.96 622.08 473.96 622.08 490.69 621.36 490.05 603.15 473.96 589.78 473.96 587.32 473.96 612.22 495.96 586.9 518.34 589.36 518.34 602.73 518.34 621.36 501.87 622.08 501.24 622.08 518.34 633.78 518.34 633.78 501.24 634.49 501.87 653.13 518.34 666.5 518.34 668.96 518.34 643.64 495.96"/>
  </g>
  <g>
    <path class="st0" d="M368.92,387.68l6.54-26.19c-.46-.59-.3-.36-.7-.16-4.99,2.52-9.59,5.95-14.73,8.17-3.82-4.33-7.31-9.03-11.22-13.26-.56-.6-1.09-2.09-1.99-1.25l-12.23,14.85-15.44-8.8,6.67,27.07,43.1-.44ZM329.05,373.91c1.2.69,5.67,4.04,6.62,3.77l11.77-13.43,11.42,13.45,7.39-4.65-1.93,8.94c-8.58.26-17.21.09-25.81.11-1.51,0-2.91.04-4.44,0-.67-.02-3.88.23-4.03-.02l-1.7-8.3c.23-.47.5.01.71.13Z"/>
    <polygon class="st0" points="366.91 405.7 365.64 405.7 363.37 405.7 371.74 412.67 376.4 405.7 366.91 405.7"/>
    <path class="st0" d="M423.41,465.69s-.51.55-.84.89c-3.16,3.4-6.22,6.93-9.62,10.07h-22.16l.29-11.4.26-.62,15.54-15.69,13.98-13.18.2-16.38,6.58-7.61h4.94v19.7c-6.19,6.4-12.01,13.28-18.06,19.86-4.35,4.74-9.9,9.68-13.84,14.59-.24.3-.93.9-.45,1.25l4.33,3.22c.29.01,1.5-1.31,2.04-1.89,10.32-11.03,20.45-22.14,30.78-33.16l.85-1.49v-28.29h-11.71c-.11,0-.98-.05-1.39-.02l-.48.51-9.4,10.77-.42,16.44-27.24,26.22-40.4-39.72,9.19-20.88c.48-.34,10.6-.27,11.59,0,2.58.69,10.13,5.26,12.98,6.82,3.66,2,7.28,4.13,10.92,6.16l.49.31-3.29,8.72c-.21,1.04-6.36.42-9.83.5l-8.69,10.66c-.02.5,5.53,6.18,6.38,6.94.49.44,1.51,1.54,1.92,1.76,1.09.59,6.44.26,7.89.26.27,0,3.05-7.36,3.23-7.91-.15,0-.34-.02-.42-.02h-4.8c-1.69,0-1.22,1-1.76,1.18-2.67.88-2.91-.39-4.31-2.08l3.59-4.67c1.95-.07,3.98.14,5.93.19,1.11.03,4.41.39,4.62-.37l6.33-18.47-.43-.22c-9.94-5.56-19.79-11.35-30.13-16.07l-42.83.23c-6.86,6.49-15.23,15.62-21.63,22.71h0v31.85c2.15,2.39,8.48,9.02,15.83,16.67v14.51l-40.22,40.68-11.57-11.19c-.25-.52-.26-7.23-.12-8.14.08-.55.31-.97.68-1.36l7.23-7.9,18.55-20.17-18.33-20.48,13.82-17.44-18.22-22.06-18.19,22.62,32.99,37.92-15.36,16.36c-.88.93-3.76,3.87-4.33,4.5-.57.64-2.27,2.44-3.41,3.74l-.12.13s0,0,0,0c-.48.56-.85,1.01-.94,1.21-1.08,2.2.09,10.34-.24,13.22l.59,1.01,17.37,16.83.52-.52,8.55-8.8v17.18h-10.02l-12.16,14.19c.19,10.86-.49,21.86-.13,32.77.03.99,0,1.58.01,2.8h43.47l-9.17-18.96h-7.9s-1.22,0-1.89.01c.36-1.72,1.49-6.97,2.03-8.76l21.26-.2,12.91-11.84v-.68s.14-20,.14-20l18.34-17.49c7.17,5.72,14.72,10.76,21.97,16.36,3.18,2.46,6.37,4.94,9.36,7.65l.02,13.64-9.9,12.73-.03.58,9.05,14.23,13.79.27,3.02,6.52h-25.46c-.15,0-.45-.45-.62-.62l-14.8-22.38,7.33-17.07.24-.53-21.39-16.13-4.63,4.51,18.68,13.73-6.71,16.34,18.73,28.07h37.97l-8.74-18.52-14.2-.5-4.97-7.26.11-.67,8.26-10.9-.08-19.62c-10.3-8.53-21.28-16.09-31.83-24.28-.24-.2-.48-.59-.35-.91.09-.21,3.08-2.99,3.26-3.12.21-.15.35-.46.59-.27.83.66,5.95,5.08,7.34,6.18.95.76,1.28.5,2.72.25,24.49-4.31,48.76-9.8,73.27-14.05l.48-.09v-26.22h-15.09ZM261.73,433.18c-.04-1.27,8.68-11.09,10.03-12.89l.81.76,9.98,12.42-10.51,12.29-10.3-12.59ZM432.58,485.98c0,.06,0,.49-.02.84l-.48.13c-22.14,4.09-44.24,8.13-66.27,12.82l-1.21.17-10.04-8.97-.56.54-31.73,30.25c-.03,2.39-.01,4.41-.08,6.41-.15,4.4.23,9.92-.3,14.09-.13.99-2.01,2.52-2.8,3.28-2.2,2.12-4.63,4.05-6.93,6.06h-22.87s-.72,0-.72,0l-3.62,17.39c-.15,1.54.9,3.35,2.39,3.64,1.83.35,8.45.13,10.23.08.99,1.81,1.84,3.69,2.77,5.53.15.31.29.76.33.89.14.44-.57.32-.64.32h-27.24v-27.1l9.17-10.22h12.84l.21-29.55,24.91-25.65h0l6-6.18v-10.44c7.54,7.84,15.25,15.84,20.13,20.94l4.59-4.31-40.51-41.84v-27.31h0s17.56-19.02,17.56-19.02h22.16l-9.55,22.75c.27.16.57.25.8.48,14.51,14.77,29.18,29.25,44.03,43.56v17.35c10.01.05,20.05-.12,30.06-.03l10.73-10.95h6.63v14.07Z"/>
  </g>
  <path class="st1" d="M768.91,518.33v83.31c0,25.24-20.53,45.77-45.77,45.77h-57.65v5.01h57.65c28,0,50.78-22.78,50.78-50.78v-83.31h-5.01Z"/>
  <path class="st1" d="M268.99,344.72h35.23v-5.01h-35.23c-28,0-50.78,22.78-50.78,50.78v83.47h5.01v-83.47c0-25.24,20.53-45.77,45.77-45.77Z"/>
</svg>