<svg xmlns="http://www.w3.org/2000/svg" id="_Шар_1" data-name="Шар_1" version="1.1" viewBox="183.97 303.94 624.16 384.26">
  <!-- Generator: Adobe Illustrator 29.8.2, SVG Export Plug-In . SVG Version: 2.1.1 Build 3)  -->
  <defs>
    <style>
      .st0 {
        fill: #f9b50b;
      }

      .st1 {
        fill: #fff;
      }

      .st2 {
        fill: #184149;
      }
    </style>
  </defs>
  <path class="st2" d="M271.88,303.94h448.35c48.51,0,87.9,39.39,87.9,87.9v208.46c0,48.51-39.39,87.9-87.9,87.9h-448.36c-48.51,0-87.9-39.39-87.9-87.9v-208.46c0-48.51,39.39-87.9,87.9-87.9Z"/>
  <path class="st1" d="M765.42,518.05v82.24c0,24.91-20.27,45.18-45.18,45.18h-56.91v4.95h56.91c27.64,0,50.13-22.49,50.13-50.13v-82.24h-4.95Z"/>
  <path class="st1" d="M271.88,346.65h34.78v-4.95h-34.78c-27.64,0-50.13,22.49-50.13,50.13v82.41h4.95v-82.41c0-24.91,20.27-45.18,45.18-45.18Z"/>
  <path class="st0" d="M370.54,389.06l6.45-25.85c-.45-.58-.3-.36-.69-.16-4.93,2.49-9.46,5.87-14.54,8.07-3.77-4.28-7.21-8.92-11.07-13.09-.55-.59-1.07-2.07-1.96-1.23l-12.08,14.66-15.24-8.68,6.59,26.73,42.55-.43ZM331.18,375.47c1.18.68,5.6,3.99,6.54,3.72l11.62-13.26,11.28,13.27,7.29-4.59-1.9,8.83c-8.47.26-16.99.09-25.48.11-1.49,0-2.88.03-4.38,0-.66-.02-3.83.23-3.98-.02l-1.68-8.2c.23-.46.49.01.7.13Z"/>
  <polygon class="st0" points="368.55 406.86 367.3 406.86 365.06 406.86 373.33 413.74 377.93 406.86 368.55 406.86"/>
  <path class="st0" d="M424.34,466.08s-.51.54-.83.88c-3.12,3.36-6.14,6.84-9.49,9.94h-21.88l.28-11.25.26-.61,15.34-15.49,13.8-13.01.19-16.17,6.49-7.52h4.88v19.45c-6.11,6.32-11.86,13.11-17.83,19.6-4.3,4.67-9.77,9.55-13.66,14.4-.24.29-.92.89-.44,1.24l4.27,3.17c.28.01,1.48-1.29,2.02-1.87,10.19-10.89,20.19-21.86,30.38-32.73l.84-1.47v-27.93h-11.57c-.11,0-.97-.05-1.37-.02l-.48.51-9.28,10.64-.42,16.23-26.9,25.88-39.88-39.21,9.07-20.62c.47-.34,10.46-.26,11.44,0,2.54.69,10,5.19,12.82,6.73,3.62,1.98,7.18,4.08,10.78,6.08l.48.31-3.25,8.61c-.21,1.02-6.28.41-9.7.5l-8.58,10.53c-.02.49,5.46,6.1,6.3,6.86.49.44,1.5,1.52,1.9,1.74,1.08.58,6.36.26,7.79.26.26,0,3.02-7.26,3.19-7.81-.14,0-.34-.02-.42-.02h-4.74c-1.67,0-1.2.99-1.74,1.17-2.63.87-2.88-.38-4.25-2.05l3.54-4.61c1.93-.07,3.93.14,5.86.18,1.1.03,4.36.39,4.56-.37l6.25-18.24-.42-.22c-9.82-5.49-19.54-11.21-29.75-15.86l-42.29.23c-6.78,6.41-15.03,15.42-21.35,22.42h0v31.45c2.12,2.36,8.37,8.9,15.63,16.45v14.33l-39.71,40.16-11.42-11.04c-.24-.51-.26-7.14-.12-8.03.08-.54.3-.96.68-1.34l7.13-7.8,18.32-19.91-18.1-20.22,13.65-17.21-17.99-21.78-17.96,22.33,32.57,37.43-15.16,16.15c-.87.91-3.71,3.82-4.28,4.44-.56.63-2.24,2.41-3.37,3.7l-.12.13s0,0,0,0c-.48.55-.84.99-.93,1.19-1.06,2.17.09,10.21-.24,13.05l.58.99,17.15,16.61.51-.51,8.44-8.69v16.96h-9.89l-12.01,14.01c.19,10.72-.48,21.58-.13,32.35.03.98,0,1.56.01,2.77h42.92l-9.06-18.72h-7.8s-1.21,0-1.87.01c.36-1.7,1.47-6.88,2.01-8.64l20.99-.2,12.74-11.69v-.67s.14-19.75.14-19.75l18.11-17.27c7.08,5.65,14.53,10.62,21.69,16.15,3.14,2.43,6.29,4.88,9.24,7.56l.02,13.46-9.78,12.57-.03.58,8.93,14.05,13.62.27,2.98,6.44h-25.14c-.15,0-.44-.45-.61-.61l-14.61-22.09,7.24-16.85.24-.52-21.12-15.92-4.58,4.45,18.44,13.55-6.63,16.13,18.49,27.71h37.48l-8.63-18.28-14.02-.49-4.9-7.17.1-.66,8.16-10.76-.08-19.37c-10.17-8.42-21.01-15.89-31.42-23.97-.24-.2-.48-.58-.35-.9.09-.21,3.04-2.95,3.22-3.08.21-.15.35-.45.58-.27.82.65,5.88,5.01,7.24,6.1.93.75,1.26.49,2.69.24,24.18-4.25,48.14-9.67,72.34-13.87l.47-.09v-25.88h-14.9ZM264.72,433.98c-.04-1.26,8.57-10.95,9.9-12.72l.8.75,9.85,12.27-10.38,12.14-10.17-12.43ZM433.39,486.11c0,.06,0,.49-.02.83l-.47.13c-21.85,4.04-43.68,8.03-65.43,12.65l-1.19.17-9.91-8.86-.55.53-31.32,29.86c-.03,2.36-.01,4.35-.08,6.33-.15,4.35.23,9.79-.3,13.91-.12.98-1.99,2.49-2.76,3.24-2.17,2.09-4.57,4-6.84,5.98h-22.58s-.71,0-.71,0l-3.57,17.17c-.15,1.52.89,3.31,2.36,3.6,1.81.35,8.34.13,10.1.08.97,1.78,1.82,3.64,2.74,5.46.15.3.28.75.33.88.14.44-.57.32-.64.32h-26.89v-26.76l9.06-10.09h12.68l.21-29.17,24.59-25.32h0l5.92-6.11v-10.31c7.44,7.74,15.06,15.63,19.87,20.68l4.53-4.26-40-41.31v-26.96h0s17.34-18.78,17.34-18.78h21.88l-9.42,22.46c.26.16.56.25.79.48,14.32,14.58,28.81,28.88,43.47,43v17.13c9.89.05,19.79-.12,29.67-.03l10.6-10.81h6.55v13.89Z"/>
  <path class="st0" d="M464.85,540.71v9.93h-30.46v5.59h17.84c2.62,0,4.97.32,7.03.97,2.06.65,3.8,1.59,5.22,2.81,1.42,1.22,2.51,2.71,3.27,4.46.75,1.75,1.13,3.72,1.13,5.9s-.38,4.14-1.13,5.88c-.76,1.74-1.84,3.22-3.27,4.45-1.43,1.22-3.17,2.16-5.22,2.82-2.06.66-4.4.99-7.03.99h-29.39v-43.81h42.01ZM452.23,574.59c3.4,0,5.1-1.41,5.1-4.22s-1.7-4.22-5.1-4.22h-17.84v8.43h17.84Z"/>
  <rect class="st0" x="475.6" y="540.7" width="11.55" height="43.81"/>
  <path class="st0" d="M545.41,540.71v43.81h-11.55v-33.88h-22.73v14.39c0,3.1-.21,5.75-.64,7.96-.43,2.21-1.04,4.07-1.85,5.56-.8,1.5-1.77,2.68-2.9,3.54-1.13.87-2.39,1.5-3.77,1.91-1.38.41-2.89.63-4.52.67-1.63.04-3.33,0-5.1-.15v-9.93c.83.16,1.69.18,2.55.06.87-.12,1.64-.52,2.34-1.19.69-.67,1.26-1.67,1.69-3.01.44-1.33.66-3.14.66-5.42v-24.32h45.83Z"/>
  <path class="st0" d="M564.6,540.71v14.85h19.86c2.67,0,4.96.37,6.89,1.1,1.93.73,3.51,1.74,4.74,3.02,1.23,1.28,2.14,2.81,2.74,4.58.59,1.77.88,3.7.88,5.77s-.3,4-.88,5.76c-.59,1.76-1.51,3.29-2.74,4.58-1.23,1.29-2.81,2.31-4.74,3.04-1.92.73-4.22,1.1-6.89,1.1h-31.41v-43.81h11.55ZM584.46,574.59c1.1,0,1.99-.39,2.67-1.16.68-.77,1.02-1.9,1.02-3.39s-.34-2.59-1.02-3.37c-.68-.78-1.57-1.18-2.67-1.18h-19.86v9.1h19.86Z"/>
  <polygon class="st0" points="665.52 584.52 606.12 584.52 606.12 540.7 617.67 540.7 617.67 574.59 630.04 574.59 630.04 540.7 641.59 540.7 641.59 574.59 653.97 574.59 653.97 540.7 665.52 540.7 665.52 584.52"/>
  <polygon class="st0" points="715.2 557.72 715.2 567.14 683.94 567.14 683.94 574.59 717.03 574.59 717.03 584.52 672.4 584.52 672.4 540.71 716.55 540.71 716.55 550.63 683.94 550.63 683.94 557.72 715.2 557.72"/>
  <g>
    <path class="st1" d="M535.03,407.61v43.81h-11.55v-33.88h-22.73v14.39c0,3.1-.22,5.75-.64,7.96-.43,2.21-1.04,4.07-1.85,5.56-.81,1.5-1.77,2.68-2.9,3.54-1.13.87-2.39,1.5-3.77,1.91-1.39.41-2.89.63-4.52.67-1.63.04-3.33,0-5.11-.15v-9.93c.84.16,1.69.18,2.55.06.87-.12,1.64-.52,2.34-1.19.69-.67,1.26-1.67,1.7-3.01.43-1.33.66-3.14.66-5.42v-24.32h45.83Z"/>
    <path class="st1" d="M554.22,407.61v14.85h19.86c2.67,0,4.96.37,6.89,1.1,1.92.73,3.5,1.74,4.73,3.02,1.23,1.28,2.14,2.81,2.74,4.58.59,1.77.88,3.7.88,5.77s-.29,4-.88,5.76c-.59,1.76-1.5,3.29-2.74,4.58-1.23,1.29-2.81,2.31-4.73,3.04-1.92.73-4.22,1.1-6.89,1.1h-31.41v-43.81h11.55ZM574.08,441.49c1.1,0,1.99-.39,2.67-1.16.68-.77,1.02-1.9,1.02-3.39s-.34-2.59-1.02-3.37c-.68-.78-1.57-1.18-2.67-1.18h-19.86v9.1h19.86Z"/>
    <path class="st1" d="M595.74,451.42v-43.81h29.12c2.32,0,4.36.18,6.11.54,1.75.36,3.26.83,4.52,1.43,1.27.6,2.31,1.3,3.15,2.09.83.79,1.5,1.64,1.99,2.54.49.89.83,1.82,1.04,2.76.2.95.3,1.86.3,2.74,0,1.08-.17,2.1-.52,3.07-.35.97-.84,1.85-1.48,2.64-.64.79-1.41,1.48-2.31,2.05-.9.57-1.91,1-3.02,1.28,1.3.32,2.49.77,3.56,1.33,1.07.56,1.98,1.25,2.73,2.06.76.82,1.33,1.75,1.74,2.81.41,1.06.61,2.25.61,3.57,0,1.59-.27,3.15-.79,4.69-.53,1.54-1.46,2.92-2.8,4.14-1.33,1.22-3.14,2.2-5.41,2.95-2.27.74-5.16,1.12-8.66,1.12h-29.88ZM624.46,425.18c1.08,0,1.98-.11,2.71-.34.72-.22,1.3-.53,1.74-.92.44-.39.75-.83.93-1.34.18-.51.27-1.06.27-1.65s-.09-1.11-.27-1.61c-.18-.5-.49-.92-.92-1.27-.43-.35-1.01-.62-1.73-.83-.72-.2-1.62-.31-2.7-.31h-17.2v8.25h17.17ZM624.74,442.1c2.38,0,4.09-.36,5.13-1.08,1.04-.73,1.56-1.85,1.56-3.38s-.52-2.65-1.56-3.37c-1.04-.73-2.74-1.08-5.1-1.08h-17.48v8.92h17.44Z"/>
    <rect class="st1" x="650" y="407.61" width="11.55" height="43.81"/>
    <path class="st1" d="M669.5,451.42v-43.81h29.12c2.32,0,4.36.18,6.11.54,1.76.36,3.26.83,4.52,1.43,1.26.6,2.31,1.3,3.15,2.09.84.79,1.5,1.64,1.99,2.54.49.89.83,1.82,1.04,2.76.2.95.31,1.86.31,2.74,0,1.08-.17,2.1-.52,3.07-.35.97-.84,1.85-1.48,2.64-.64.79-1.41,1.48-2.31,2.05-.9.57-1.9,1-3.02,1.28,1.3.32,2.49.77,3.56,1.33,1.07.56,1.98,1.25,2.73,2.06.76.82,1.33,1.75,1.74,2.81.41,1.06.61,2.25.61,3.57,0,1.59-.26,3.15-.79,4.69-.53,1.54-1.46,2.92-2.8,4.14-1.33,1.22-3.14,2.2-5.41,2.95-2.27.74-5.16,1.12-8.66,1.12h-29.88ZM698.21,425.18c1.08,0,1.98-.11,2.71-.34.72-.22,1.3-.53,1.74-.92.44-.39.75-.83.93-1.34.18-.51.27-1.06.27-1.65s-.09-1.11-.27-1.61c-.18-.5-.49-.92-.92-1.27-.43-.35-1-.62-1.73-.83-.72-.2-1.62-.31-2.7-.31h-17.2v8.25h17.17ZM698.49,442.1c2.38,0,4.09-.36,5.13-1.08,1.04-.73,1.56-1.85,1.56-3.38s-.52-2.65-1.56-3.37c-1.04-.73-2.74-1.08-5.1-1.08h-17.48v8.92h17.44Z"/>
  </g>
  <g>
    <polygon class="st1" points="492.34 502.07 505.99 474.24 521.14 474.24 521.14 518.05 509.6 518.05 509.6 491.66 496.61 518.05 488.06 518.05 475.07 491.66 475.07 518.05 463.52 518.05 463.52 474.24 478.68 474.24 492.34 502.07"/>
    <path class="st1" d="M527.56,496.15c0-2.14.27-4.2.83-6.17.55-1.98,1.37-3.82,2.47-5.53,1.1-1.71,2.47-3.27,4.12-4.67,1.65-1.41,3.57-2.61,5.77-3.61,2.2-1,4.67-1.77,7.42-2.32,2.75-.55,5.77-.83,9.07-.83s6.33.28,9.07.83c2.75.55,5.22,1.32,7.42,2.32,2.2,1,4.12,2.2,5.77,3.61,1.65,1.41,3.03,2.96,4.12,4.67,1.1,1.71,1.92,3.55,2.47,5.53.55,1.98.83,4.03.83,6.17,0,3.22-.62,6.23-1.85,9.03-1.23,2.8-3.09,5.25-5.56,7.35-2.48,2.1-5.57,3.75-9.29,4.95-3.72,1.2-8.05,1.8-13,1.8s-9.28-.6-13-1.8c-3.72-1.2-6.81-2.85-9.29-4.95-2.47-2.1-4.33-4.55-5.56-7.35-1.23-2.8-1.85-5.81-1.85-9.03M539.41,496.15c0,1.73.32,3.39.95,4.98.63,1.59,1.65,2.99,3.06,4.22,1.4,1.22,3.24,2.19,5.51,2.92,2.27.72,5.05,1.08,8.32,1.08s6.05-.36,8.32-1.08c2.27-.73,4.11-1.7,5.52-2.92,1.4-1.22,2.42-2.63,3.06-4.22.63-1.59.95-3.25.95-4.98s-.32-3.39-.95-4.98c-.63-1.59-1.65-2.99-3.06-4.22-1.41-1.22-3.25-2.19-5.52-2.92-2.27-.72-5.04-1.08-8.32-1.08s-6.05.36-8.32,1.08c-2.27.73-4.11,1.7-5.51,2.92-1.41,1.22-2.42,2.62-3.06,4.22-.63,1.59-.95,3.25-.95,4.98"/>
    <polygon class="st1" points="715.2 491.26 715.2 500.67 683.94 500.67 683.94 508.13 717.03 508.13 717.03 518.05 672.4 518.05 672.4 474.24 716.55 474.24 716.55 484.17 683.94 484.17 683.94 491.26 715.2 491.26"/>
    <polygon class="st1" points="641.75 495.96 666.34 474.24 663.91 474.24 650.71 474.24 632.72 490.13 632.02 490.75 632.02 474.24 620.47 474.24 620.47 490.75 619.76 490.13 601.78 474.24 588.58 474.24 586.15 474.24 610.74 495.96 585.74 518.05 588.16 518.05 601.37 518.05 619.76 501.8 620.47 501.17 620.47 518.05 632.02 518.05 632.02 501.17 632.72 501.8 651.12 518.05 664.32 518.05 666.75 518.05 641.75 495.96"/>
  </g>
</svg>