<?xml version="1.0" standalone="no"?>
<!DOCTYPE svg PUBLIC "-//W3C//DTD SVG 20010904//EN"
 "http://www.w3.org/TR/2001/REC-SVG-20010904/DTD/svg10.dtd">
<svg version="1.0" xmlns="http://www.w3.org/2000/svg"
 width="4500.000000pt" height="4500.000000pt" viewBox="0 0 4500.000000 4500.000000"
 preserveAspectRatio="xMidYMid meet">

<g transform="translate(0.000000,4500.000000) scale(0.100000,-0.100000)"
fill="#000000" stroke="none">
<path d="M7129 26817 c-217 -74 -369 -327 -329 -548 19 -107 70 -199 166 -299
l83 -86 -54 -224 c-120 -506 -178 -717 -221 -801 -26 -53 -58 -69 -133 -69
-148 0 -326 -192 -361 -388 -10 -54 -10 -84 -1 -138 43 -244 256 -424 503
-424 183 0 325 91 435 278 l54 92 267 -1 c328 0 482 -10 517 -33 13 -9 34 -35
46 -58 51 -100 193 -211 333 -259 93 -33 128 -35 210 -14 125 33 262 126 325
222 119 179 63 484 -117 644 -100 89 -238 124 -376 96 -153 -32 -248 -94 -337
-222 -72 -105 -92 -113 -308 -126 -95 -6 -245 -9 -334 -7 -149 3 -165 5 -202
27 -33 19 -284 285 -293 310 -1 5 35 156 82 337 46 181 98 386 115 457 50 205
70 232 226 292 117 46 200 105 259 185 152 206 120 470 -78 647 -138 123 -318
164 -477 110z"/>
<path d="M8321 26054 c-29 -36 -61 -107 -67 -146 -11 -70 55 -127 246 -213
452 -203 848 -470 1155 -779 285 -286 426 -528 482 -826 27 -148 24 -489 -7
-735 -31 -244 -34 -543 -7 -678 49 -246 148 -453 403 -842 239 -364 304 -479
304 -532 0 -29 -80 -71 -195 -103 -448 -125 -589 -264 -652 -640 -13 -75 -16
-188 -18 -545 -2 -469 -7 -536 -47 -643 -36 -96 -167 -210 -306 -265 -70 -28
-210 -37 -732 -46 -558 -9 -559 -10 -635 -85 -82 -83 -107 -182 -109 -436 -1
-160 1 -179 21 -222 25 -54 47 -64 122 -55 64 8 100 26 117 59 14 28 27 143
40 350 l6 96 516 5 c422 3 534 7 610 21 175 31 266 72 387 173 140 118 218
233 255 378 33 127 42 266 49 750 8 531 7 521 91 630 74 96 147 138 322 183
224 59 344 126 388 217 21 44 22 56 17 179 -10 226 -39 296 -250 598 -258 369
-354 553 -398 758 -43 202 -27 711 30 965 39 171 35 246 -25 487 -48 190 -94
320 -164 464 -230 468 -646 854 -1317 1217 -160 87 -577 287 -598 287 -7 0
-23 -12 -34 -26z"/>
<path d="M5172 25065 c-97 -21 -162 -66 -245 -167 -56 -69 -87 -140 -96 -222
-11 -97 -32 -126 -124 -170 -98 -48 -496 -166 -560 -166 -9 0 -50 33 -90 73
-79 79 -159 127 -252 152 -251 65 -498 -81 -574 -340 -20 -67 -23 -93 -18
-179 8 -152 32 -213 121 -301 81 -80 182 -136 282 -156 227 -46 524 164 551
390 8 71 44 111 137 156 80 38 296 106 419 131 130 26 147 21 354 -115 l133
-86 -3 -438 -2 -439 -85 -36 c-187 -82 -283 -232 -283 -442 0 -245 137 -426
368 -485 263 -67 541 122 601 407 20 94 12 157 -30 245 -57 118 -214 293 -263
293 -28 0 -43 68 -54 252 -13 218 -6 573 13 638 11 35 24 52 63 80 76 54 155
131 181 176 115 196 86 453 -71 622 -114 124 -281 168 -473 127z"/>
<path d="M19126 23928 c15 -159 72 -314 153 -416 202 -254 660 -308 947 -113
155 106 251 292 270 522 l7 79 -222 0 -221 0 0 -48 c0 -111 -48 -199 -129
-235 -56 -25 -179 -27 -231 -5 -78 34 -124 111 -137 231 l-6 57 -219 0 -219 0
7 -72z"/>
<path d="M7139 23360 c-118 -35 -292 -184 -344 -295 -40 -84 -47 -217 -16
-330 38 -137 78 -202 181 -288 l33 -27 -6 -88 c-6 -93 -71 -402 -113 -542 -34
-111 -79 -195 -118 -219 -17 -10 -60 -26 -96 -35 -92 -23 -161 -60 -225 -118
-100 -91 -145 -199 -145 -348 0 -184 85 -339 232 -423 83 -48 144 -62 268 -62
149 0 187 16 293 123 95 97 141 172 163 269 31 139 -6 254 -138 433 -45 59
-76 111 -73 120 2 8 34 141 70 295 99 421 117 473 177 518 18 14 85 43 148 65
l116 40 214 -190 c339 -298 450 -413 450 -465 0 -13 -9 -51 -21 -85 -40 -120
-19 -305 47 -410 38 -60 139 -152 204 -187 76 -41 184 -64 253 -55 127 17 220
67 325 178 83 87 100 131 108 266 11 188 -22 282 -144 408 -105 109 -117 112
-407 112 l-221 0 -199 176 c-277 244 -394 360 -418 413 -18 41 -18 51 -7 137
14 104 8 178 -21 262 -53 155 -188 275 -388 343 -56 20 -136 23 -182 9z"/>
<path d="M25379 23145 c-554 -76 -976 -419 -1137 -925 -56 -175 -67 -254 -66
-480 0 -173 4 -221 22 -307 110 -509 435 -872 917 -1026 325 -104 684 -101
1012 8 479 159 806 546 900 1065 23 131 23 399 -1 535 -78 442 -336 796 -723
989 -266 133 -605 184 -924 141z m418 -690 c137 -32 276 -119 355 -221 100
-131 146 -264 155 -449 17 -378 -175 -661 -506 -746 -85 -22 -259 -27 -347
-10 -277 53 -471 252 -529 540 -24 117 -17 327 15 426 71 225 233 389 445 451
125 36 280 39 412 9z"/>
<path d="M28710 23016 l0 -143 -92 -7 c-264 -20 -546 -110 -731 -233 -90 -60
-216 -179 -273 -259 -61 -86 -120 -213 -151 -329 -25 -93 -27 -114 -27 -295 0
-180 2 -202 27 -294 92 -341 331 -588 690 -715 168 -59 376 -100 510 -101 l57
0 0 -155 0 -155 333 2 332 3 3 151 3 151 102 6 c311 20 607 120 808 273 82 63
185 178 235 263 193 330 188 828 -10 1165 -49 83 -187 227 -271 283 -196 131
-478 219 -770 239 l-95 7 0 143 0 144 -340 0 -340 0 0 -144z m20 -1270 l0
-504 -42 5 c-245 27 -413 115 -484 254 -73 146 -72 373 3 511 47 86 144 161
257 198 53 17 172 38 224 39 l42 1 0 -504z m876 474 c224 -58 337 -196 351
-431 19 -323 -156 -501 -534 -542 l-43 -5 0 505 0 506 75 -7 c41 -4 109 -16
151 -26z"/>
<path d="M32269 23145 c-465 -64 -847 -324 -1047 -712 -60 -118 -102 -238
-133 -383 -19 -89 -23 -136 -23 -305 0 -170 4 -216 23 -305 63 -295 174 -505
370 -701 151 -151 303 -247 501 -317 549 -192 1174 -76 1558 292 185 177 306
385 372 641 107 418 37 869 -189 1210 -57 87 -214 251 -301 314 -307 225 -719
322 -1131 266z m437 -695 c229 -59 402 -236 470 -481 26 -91 26 -348 1 -439
-78 -292 -301 -483 -593 -508 -318 -28 -576 101 -699 351 -59 120 -76 187 -82
327 -12 252 51 434 202 585 170 170 436 233 701 165z"/>
<path d="M40860 23146 c-247 -39 -469 -130 -646 -266 -80 -62 -214 -207 -274
-294 -98 -146 -168 -318 -212 -520 -30 -137 -33 -482 -5 -621 118 -587 510
-979 1092 -1092 124 -24 423 -24 552 0 203 38 378 106 526 204 157 104 321
292 411 472 41 81 111 282 122 349 l7 42 -356 0 -355 0 -6 -24 c-12 -47 -109
-177 -170 -228 -121 -101 -258 -148 -432 -149 -138 0 -222 18 -323 71 -179 93
-292 251 -336 469 -21 103 -16 334 9 426 31 113 92 222 170 300 111 112 220
165 384 186 271 35 534 -85 654 -298 l30 -53 359 0 c197 0 359 2 359 5 0 2
-18 58 -39 124 -76 230 -184 405 -344 559 -179 170 -400 280 -664 328 -119 21
-403 27 -513 10z"/>
<path d="M19957 22455 c-389 -371 -709 -675 -710 -675 -1 0 0 301 2 670 l3
670 -361 0 -361 0 0 -1380 0 -1380 110 0 110 0 713 686 712 685 3 -680 2 -681
360 0 360 0 0 1380 0 1380 -117 0 -118 0 -708 -675z"/>
<path d="M13122 21748 l3 -1373 358 -3 357 -2 0 545 0 545 460 0 460 0 2 -542
3 -543 360 0 360 0 0 1370 0 1370 -360 0 -360 0 -3 -502 -2 -503 -460 0 -460
0 0 505 0 505 -360 0 -360 0 2 -1372z"/>
<path d="M16182 21748 l3 -1373 873 -3 872 -2 0 325 0 325 -515 0 -515 0 0
210 0 210 458 2 457 3 3 313 2 312 -460 0 -460 0 0 205 0 205 500 0 500 0 0
320 0 320 -860 0 -860 0 2 -1372z"/>
<path d="M21600 21745 l0 -1375 358 2 357 3 3 378 2 377 304 0 c340 0 415 8
579 64 131 45 243 114 342 211 90 88 128 139 178 241 93 186 127 423 96 651
-15 115 -73 279 -132 375 -62 103 -197 238 -292 294 -127 74 -280 125 -435
144 -50 6 -343 10 -722 10 l-638 0 0 -1375z m1300 714 c31 -14 72 -40 91 -57
138 -121 142 -414 7 -551 -18 -19 -62 -48 -98 -65 l-65 -31 -257 -3 -258 -4 0
372 0 372 263 -4 c258 -3 263 -3 317 -29z"/>
<path d="M34490 21745 l0 -1375 360 0 360 0 0 545 0 545 138 0 c75 0 146 3
158 6 19 5 44 -45 274 -545 l253 -551 391 2 c351 3 391 5 394 19 2 9 -141 309
-318 667 -176 357 -320 653 -320 657 0 4 29 38 64 76 182 193 296 462 350 824
18 119 41 468 33 490 -6 13 -50 15 -362 15 -277 0 -355 -3 -355 -12 -1 -93
-23 -371 -35 -439 -34 -196 -94 -330 -189 -424 -100 -99 -224 -144 -393 -145
l-83 0 0 510 0 510 -360 0 -360 0 0 -1375z"/>
<path d="M36972 23098 c3 -13 233 -420 512 -906 395 -689 505 -888 500 -905
-3 -12 -29 -66 -56 -119 -57 -113 -128 -186 -204 -212 -70 -24 -249 -22 -349
4 -43 11 -81 18 -84 14 -11 -11 -150 -549 -143 -556 14 -14 244 -68 330 -78
252 -29 494 8 675 102 150 78 303 251 408 461 101 199 999 2173 999 2193 l0
24 -382 0 -383 0 -220 -525 c-163 -389 -224 -525 -235 -523 -9 2 -129 225
-282 523 l-267 520 -412 3 -411 2 4 -22z"/>
<path d="M3519 22855 c-44 -24 -51 -63 -57 -283 -11 -498 69 -926 269 -1437
135 -344 313 -667 536 -968 186 -251 338 -525 385 -692 21 -76 22 -98 23 -425
0 -393 -2 -406 -80 -581 -25 -56 -44 -108 -41 -116 7 -18 170 -94 217 -100 31
-5 39 -1 57 25 43 60 130 365 158 554 20 136 15 376 -11 508 -40 208 -124 434
-235 634 -59 106 -127 209 -284 431 -204 288 -422 712 -527 1025 -109 325
-187 986 -150 1271 16 120 10 128 -114 148 -38 6 -81 14 -95 16 -14 3 -37 -2
-51 -10z"/>
<path d="M18735 19543 c26 -106 201 -138 287 -53 37 37 39 80 3 80 -18 0 -28
-7 -35 -24 -13 -34 -49 -56 -93 -56 -50 0 -95 24 -103 55 -5 20 -13 25 -36 25
-28 0 -30 -2 -23 -27z"/>
<path d="M13130 19055 l0 -345 35 0 35 0 2 265 3 265 130 -222 c98 -167 135
-223 150 -223 14 0 51 56 149 224 l131 225 3 -267 2 -267 35 0 35 0 0 345 0
345 -29 0 c-27 0 -37 -14 -177 -255 -81 -140 -149 -254 -149 -252 -1 1 -68
116 -150 255 -139 237 -149 252 -176 252 l-29 0 0 -345z"/>
<path d="M14070 19055 l0 -345 245 0 245 0 0 30 0 30 -205 0 -205 0 0 125 0
125 175 0 175 0 0 35 0 35 -175 0 -175 0 0 120 0 120 195 0 195 0 0 35 0 35
-235 0 -235 0 0 -345z"/>
<path d="M14780 19373 c-1 -104 -21 -398 -31 -448 -19 -104 -58 -155 -119
-155 -19 0 -20 -8 -20 -110 l0 -110 35 0 35 0 0 80 0 80 300 0 300 0 0 -81 0
-80 33 3 32 3 3 108 3 107 -51 0 -50 0 -2 313 -3 312 -232 3 -233 2 0 -27z
m390 -323 l0 -280 -206 0 -206 0 22 34 c30 50 49 153 55 306 3 74 8 154 11
178 l5 42 160 0 159 0 0 -280z"/>
<path d="M15497 19394 c-4 -4 -7 -160 -7 -346 l0 -338 38 0 c37 1 39 3 252
280 l215 279 3 -279 2 -280 35 0 35 0 0 345 0 345 -29 0 c-16 0 -36 -6 -43
-13 -7 -8 -105 -133 -218 -279 l-205 -266 -5 277 -5 276 -30 3 c-17 2 -34 0
-38 -4z"/>
<path d="M16227 19394 c-11 -11 -8 -255 4 -297 14 -53 71 -112 127 -134 63
-24 186 -22 270 5 l62 20 0 -139 0 -139 40 0 40 0 -2 343 -3 342 -35 0 -35 0
-5 -170 -5 -169 -50 -20 c-35 -13 -77 -19 -140 -20 -76 -1 -95 2 -125 21 -59
37 -64 53 -70 213 l-5 145 -30 3 c-17 2 -34 0 -38 -4z"/>
<path d="M16997 19393 c-4 -3 -7 -159 -7 -345 l0 -338 40 0 40 0 0 155 0 155
215 0 215 0 0 -155 0 -155 35 0 35 0 0 345 0 345 -35 0 -35 0 0 -155 0 -155
-215 0 -215 0 0 155 0 155 -33 0 c-19 0 -37 -3 -40 -7z"/>
<path d="M17800 19055 l0 -345 34 0 c34 0 42 10 248 275 l213 276 3 -276 2
-275 40 0 40 0 -2 343 -3 342 -31 3 c-30 3 -40 -7 -244 -273 -117 -151 -217
-278 -221 -281 -5 -3 -9 121 -9 275 l0 281 -35 0 -35 0 0 -345z"/>
<path d="M18607 19393 c-4 -3 -7 -159 -7 -345 l0 -338 38 0 c38 0 38 1 255
281 l217 281 0 -281 0 -281 35 0 35 0 0 346 0 345 -32 -3 c-30 -3 -52 -27
-248 -281 l-215 -278 -3 280 -2 281 -33 0 c-19 0 -37 -3 -40 -7z"/>
<path d="M19670 19055 l0 -345 300 0 300 0 0 -80 0 -80 35 0 35 0 0 110 0 110
-55 0 -55 0 -2 313 -3 312 -35 0 -35 0 -3 -312 -2 -313 -205 0 -205 0 0 315 0
315 -35 0 -35 0 0 -345z"/>
<path d="M20480 19055 l0 -345 245 0 245 0 0 30 0 30 -210 0 -210 0 0 125 0
125 178 2 177 3 3 33 3 32 -180 0 -181 0 0 120 0 120 200 0 200 0 0 35 0 35
-235 0 -235 0 0 -345z"/>
<path d="M21127 19394 c-4 -4 -7 -160 -7 -346 l0 -338 40 0 40 0 0 155 0 155
210 0 210 0 0 -155 0 -155 40 0 40 0 -2 343 -3 342 -35 0 -35 0 -3 -152 -3
-153 -209 0 -209 0 -3 153 -3 152 -30 3 c-17 2 -34 0 -38 -4z"/>
<path d="M21827 19393 c-4 -3 -7 -19 -7 -35 l0 -28 120 0 120 0 0 -310 0 -310
40 0 40 0 0 310 0 310 121 0 120 0 -3 33 -3 32 -271 3 c-149 1 -273 -1 -277
-5z"/>
<path d="M22508 19394 c-5 -4 -8 -160 -8 -346 l0 -338 40 0 40 0 0 104 0 103
133 6 c154 6 212 22 266 76 83 83 82 237 -1 321 -60 60 -107 72 -298 77 -91 3
-168 2 -172 -3z m337 -75 c22 -6 56 -28 77 -49 37 -36 38 -40 38 -108 0 -61
-3 -74 -26 -102 -46 -54 -76 -64 -221 -68 l-133 -4 0 171 0 171 113 0 c61 0
130 -5 152 -11z"/>
<path d="M23457 19393 c-4 -3 -7 -159 -7 -345 l0 -338 40 0 40 0 2 262 3 261
119 -204 c124 -214 141 -239 161 -239 7 0 70 100 141 222 l129 222 3 -262 2
-262 40 0 40 0 -2 343 -3 342 -30 0 c-28 0 -36 -11 -172 -245 -78 -135 -146
-246 -150 -247 -5 -1 -59 86 -122 195 -168 289 -177 302 -204 302 -13 0 -27
-3 -30 -7z"/>
<path d="M24586 19348 c-13 -29 -82 -182 -155 -340 -72 -158 -131 -290 -131
-293 0 -3 17 -5 38 -5 l38 0 39 90 39 90 191 0 191 0 39 -90 39 -90 38 0 c21
0 38 3 38 8 0 4 -69 158 -153 342 l-154 335 -36 3 c-36 3 -37 1 -61 -50z m139
-212 c41 -92 75 -172 75 -177 0 -11 -310 -13 -310 -1 0 10 153 353 156 349 2
-1 37 -78 79 -171z"/>
<path d="M25127 19393 c-4 -3 -7 -159 -7 -345 l0 -338 40 0 40 0 0 105 0 105
103 0 c132 0 208 15 266 54 63 42 91 100 91 187 0 124 -72 205 -203 228 -69
12 -319 15 -330 4z m378 -90 c54 -29 79 -74 79 -143 0 -68 -23 -110 -78 -142
-36 -20 -57 -23 -173 -26 l-133 -4 0 172 0 172 133 -4 c111 -3 138 -7 172 -25z"/>
<path d="M25687 19393 c-4 -3 -7 -19 -7 -35 l0 -28 120 0 120 0 0 -310 0 -310
40 0 40 0 0 310 0 310 121 0 120 0 -3 33 -3 32 -271 3 c-149 1 -273 -1 -277
-5z"/>
<path d="M26367 19394 c-4 -4 -7 -160 -7 -346 l0 -338 38 0 c37 1 39 3 252
280 l215 279 3 -279 2 -280 35 0 35 0 0 345 0 345 -29 0 c-16 0 -36 -6 -43
-13 -7 -8 -105 -133 -218 -279 l-205 -266 -5 277 -5 276 -30 3 c-17 2 -34 0
-38 -4z"/>
<path d="M27350 19396 c0 -3 49 -74 108 -158 60 -84 112 -159 116 -165 4 -8
-41 -80 -118 -188 l-126 -175 45 0 44 0 105 145 104 145 104 -144 103 -145 43
-1 c23 0 42 3 42 6 0 3 -54 82 -120 174 -66 93 -120 172 -120 175 0 3 50 75
110 160 61 85 110 159 110 165 0 5 -17 10 -38 10 -38 0 -40 -2 -131 -130 -51
-71 -96 -132 -99 -134 -4 -2 -50 55 -102 128 -94 129 -96 131 -138 134 -23 2
-42 1 -42 -2z"/>
<path d="M28242 19388 c-8 -11 -196 -417 -289 -626 l-23 -53 40 3 c41 3 41 3
79 88 l39 85 191 0 192 0 38 -85 39 -85 41 -3 41 -3 -23 53 c-93 209 -281 615
-289 626 -6 6 -23 12 -38 12 -15 0 -32 -6 -38 -12z m119 -254 c41 -92 76 -170
77 -175 2 -5 -69 -9 -158 -9 -126 0 -161 3 -157 13 28 70 152 337 157 337 3 0
40 -75 81 -166z"/>
<path d="M28760 19056 l0 -346 188 0 c221 0 273 10 321 65 37 43 45 70 39 141
-6 66 -29 100 -86 129 l-42 21 31 18 c35 21 68 85 69 133 0 47 -27 107 -58
130 -53 39 -93 46 -279 51 l-183 4 0 -346z m380 259 c42 -22 60 -53 60 -105 0
-25 -7 -56 -16 -68 -31 -44 -63 -52 -214 -52 l-140 0 0 120 0 120 140 0 c106
0 148 -4 170 -15z m34 -310 c65 -31 85 -113 43 -176 -33 -49 -70 -58 -239 -58
l-148 -1 0 131 0 131 153 -4 c121 -3 160 -8 191 -23z"/>
<path d="M29390 19394 c0 -4 61 -123 136 -265 85 -163 133 -265 130 -276 -9
-27 -55 -73 -84 -84 -14 -6 -43 -7 -64 -4 -35 6 -39 4 -48 -21 -13 -32 -12
-33 37 -44 56 -13 118 6 162 49 25 24 92 138 199 337 89 165 162 304 162 308
0 4 -16 6 -36 4 l-37 -3 -117 -223 c-65 -123 -120 -225 -123 -228 -2 -3 -55
93 -117 213 -61 120 -116 224 -122 231 -10 12 -78 17 -78 6z"/>
<path d="M30137 19394 c-4 -4 -7 -160 -7 -346 l0 -338 40 0 40 0 0 155 0 155
210 0 210 0 0 -155 0 -155 40 0 40 0 -2 343 -3 342 -35 0 -35 0 -3 -152 -3
-153 -209 0 -209 0 -3 153 -3 152 -30 3 c-17 2 -34 0 -38 -4z"/>
<path d="M30940 19055 l0 -345 35 0 35 0 0 155 0 155 78 0 78 0 119 -155 118
-155 45 0 c34 0 42 3 34 13 -78 98 -252 332 -252 339 0 5 52 77 116 160 63 83
118 157 121 165 4 11 -3 14 -33 11 -38 -3 -43 -9 -154 -155 l-115 -153 -77 0
-78 0 0 155 0 155 -35 0 -35 0 0 -345z"/>
<path d="M31600 19055 l0 -346 37 3 c36 3 45 12 248 275 l210 272 3 -274 2
-275 40 0 40 0 -2 343 -3 342 -30 3 c-30 3 -41 -10 -245 -275 l-215 -278 -5
275 -5 275 -37 3 -38 3 0 -346z"/>
</g>
</svg>
