<svg xmlns="http://www.w3.org/2000/svg" id="_Шар_1" data-name="Шар_1" version="1.1" viewBox="256.76 256.76 478.61 478.61">
  <!-- Generator: Adobe Illustrator 29.8.2, SVG Export Plug-In . SVG Version: 2.1.1 Build 3)  -->
  <defs>
    <style>
      .st0 {
        fill: #f9b50b;
      }

      .st1 {
        fill: #184149;
      }
    </style>
  </defs>
  <path class="st1" d="M395.47,256.76h201.19c76.56,0,138.71,62.15,138.71,138.71v201.19c0,76.56-62.15,138.71-138.71,138.71h-201.19c-76.56,0-138.71-62.15-138.71-138.71v-201.19c0-76.55,62.15-138.71,138.71-138.71Z"/>
  <g>
    <path class="st0" d="M525.73,389.07l8.47-33.95c-.6-.77-.39-.47-.91-.21-6.47,3.27-12.43,7.71-19.09,10.6-4.96-5.62-9.47-11.71-14.54-17.19-.72-.78-1.41-2.72-2.57-1.62l-15.86,19.25-20.02-11.41,8.65,35.1,55.88-.57ZM474.04,371.21c1.55.9,7.36,5.24,8.58,4.89l15.26-17.42,14.81,17.43,9.57-6.03-2.5,11.59c-11.12.34-22.32.12-33.47.15-1.95,0-3.78.05-5.75,0-.87-.02-5.03.3-5.22-.02l-2.21-10.77c.3-.61.65.02.92.17Z"/>
    <polygon class="st0" points="523.12 412.44 521.48 412.44 518.54 412.44 529.39 421.48 535.43 412.44 523.12 412.44"/>
    <path class="st0" d="M596.38,490.22c-.06,0-.67.71-1.08,1.16-4.1,4.41-8.06,8.99-12.47,13.05h-28.73l.37-14.78.34-.8,20.14-20.34,18.13-17.08.25-21.24,8.53-9.87h6.4v25.54c-8.02,8.3-15.58,17.22-23.41,25.74-5.64,6.14-12.83,12.55-17.95,18.91-.31.39-1.2,1.17-.58,1.62l5.61,4.17c.37.02,1.94-1.7,2.65-2.45,13.38-14.3,26.52-28.71,39.9-42.99l1.1-1.94v-36.68h-15.19c-.14,0-1.27-.06-1.8-.02l-.63.67-12.19,13.97-.55,21.32-35.32,33.99-52.38-51.5,11.91-27.08c.62-.44,13.74-.35,15.03,0,3.34.9,13.13,6.82,16.83,8.84,4.75,2.6,9.43,5.36,14.16,7.99l.64.41-4.26,11.31c-.27,1.34-8.25.54-12.74.65l-11.27,13.82c-.02.64,7.17,8.01,8.27,9,.64.57,1.96,2,2.5,2.28,1.42.77,8.35.34,10.23.34.34,0,3.96-9.54,4.18-10.25-.19,0-.44-.02-.55-.02h-6.22c-2.19,0-1.58,1.3-2.28,1.53-3.46,1.14-3.78-.5-5.58-2.69l4.65-6.06c2.53-.09,5.16.18,7.69.24,1.44.04,5.72.51,5.99-.48l8.21-23.95-.55-.29c-12.89-7.2-25.66-14.72-39.07-20.83l-55.54.3c-8.9,8.41-19.74,20.25-28.04,29.44h0v41.3c2.79,3.1,11,11.69,20.52,21.61v18.81l-52.15,52.74-15-14.5c-.32-.68-.34-9.37-.16-10.55.11-.71.4-1.26.89-1.76l9.37-10.25,24.05-26.15-23.77-26.56,17.92-22.61-23.62-28.61-23.58,29.32,42.77,49.16-19.91,21.21c-1.14,1.2-4.88,5.02-5.61,5.84-.74.82-2.95,3.16-4.42,4.85l-.15.16s0,0,0,0c-.62.72-1.1,1.31-1.22,1.56-1.4,2.85.12,13.41-.31,17.14l.76,1.3,22.52,21.82.67-.67,11.09-11.41v22.28h-12.99l-15.77,18.4c.24,14.08-.63,28.35-.17,42.49.04,1.29,0,2.05.02,3.63h56.36l-11.89-24.58h-10.25c-.05,0-1.58,0-2.46.02.47-2.24,1.93-9.03,2.63-11.35l27.56-.26,16.73-15.35v-.88s.19-25.94.19-25.94l23.78-22.68c9.3,7.42,19.08,13.94,28.48,21.21,4.12,3.19,8.26,6.41,12.14,9.92l.03,17.68-12.84,16.51-.03.76,11.73,18.45,17.88.35,3.92,8.46h-33.01c-.2,0-.58-.59-.8-.81l-19.19-29.01,9.51-22.13.31-.68-27.73-20.91-6.01,5.85,24.21,17.8-8.71,21.19,24.28,36.39h49.23l-11.34-24.01-18.42-.65-6.44-9.41.14-.86,10.71-14.13-.1-25.44c-13.35-11.06-27.6-20.86-41.26-31.48-.32-.26-.63-.77-.46-1.18.11-.28,3.99-3.87,4.23-4.04.27-.19.46-.59.76-.35,1.08.86,7.72,6.58,9.51,8.02,1.23.98,1.66.65,3.53.32,31.75-5.58,63.22-12.7,95-18.21l.62-.12v-33.99h-19.57ZM386.76,448.06c-.06-1.65,11.26-14.37,13.01-16.71l1.05.98,12.93,16.11-13.63,15.94-13.36-16.32ZM608.27,516.53c0,.08-.01.64-.02,1.09l-.62.17c-28.7,5.31-57.36,10.54-85.92,16.62l-1.57.22-13.02-11.63-.73.7-41.14,39.22c-.04,3.09-.01,5.71-.1,8.31-.2,5.71.3,12.86-.39,18.27-.16,1.29-2.61,3.27-3.62,4.25-2.86,2.75-6,5.26-8.98,7.86h-29.66s-.93-.01-.93-.01l-4.69,22.55c-.2,1.99,1.17,4.35,3.1,4.72,2.37.46,10.96.17,13.27.1,1.28,2.34,2.39,4.79,3.59,7.17.2.4.37.98.43,1.16.18.57-.74.42-.84.42h-35.32v-35.14l11.89-13.25h16.65l.28-38.31,32.29-33.26h0l7.77-8.02v-13.54c9.77,10.16,19.77,20.53,26.1,27.15l5.95-5.59-52.53-54.25v-35.41h0s22.77-24.66,22.77-24.66h28.73l-12.38,29.5c.34.2.74.33,1.03.63,18.81,19.15,37.83,37.93,57.09,56.48v22.5c12.98.06,25.99-.15,38.97-.04l13.92-14.2h8.6v18.24Z"/>
  </g>
</svg>