<?xml version="1.0" encoding="iso-8859-1"?>
<!-- Uploaded to: SVG Repo, www.svgrepo.com, Generator: SVG Repo Mixer Tools -->
<svg fill="#000000" height="800px" width="800px" version="1.1" id="Layer_1" xmlns="http://www.w3.org/2000/svg" xmlns:xlink="http://www.w3.org/1999/xlink" 
	 viewBox="0 0 512.001 512.001" xml:space="preserve">
<g>
	<g>
		<path d="M459.85,155.529c-2.533-4.295-8.069-5.725-12.365-3.19c-4.296,2.533-5.724,8.07-3.19,12.366
			c18.197,30.855,28.457,65.866,29.937,101.77h-69.582c-0.389-16.522-1.83-32.901-4.326-48.808
			c-0.773-4.927-5.39-8.297-10.319-7.521c-4.927,0.773-8.294,5.393-7.521,10.319c2.35,14.987,3.715,30.425,4.101,46.008H265.031
			v-81.751c10.719-0.405,21.41-1.519,31.89-3.348c4.913-0.857,8.201-5.535,7.343-10.447c-0.856-4.913-5.535-8.204-10.447-7.343
			c-9.458,1.651-19.107,2.675-28.786,3.07V57.261c3.941,0.16,7.874,0.413,11.764,0.78c4.972,0.472,9.37-3.176,9.839-8.141
			c0.468-4.965-3.176-9.369-8.141-9.839c-7.422-0.701-14.989-1.056-22.491-1.056c-70.911,0-137.47,31.421-182.61,86.205
			c-3.171,3.849-2.622,9.54,1.227,12.712c1.682,1.386,3.715,2.061,5.737,2.061c2.604,0,5.189-1.121,6.973-3.288
			c3.475-4.218,7.1-8.27,10.841-12.184c10.059,9.031,20.775,17.117,32.034,24.212c-13.956,35.038-21.865,75.431-22.853,117.751
			H37.765c1.247-31.244,8.961-61.175,23.02-89.089c2.243-4.453,0.452-9.882-4.003-12.126c-4.455-2.245-9.883-0.451-12.126,4.003
			c-16.689,33.136-25.152,68.881-25.152,106.242c0,130.406,106.093,236.498,236.497,236.498
			c130.406,0,236.498-106.093,236.498-236.498C492.499,233.231,481.21,191.744,459.85,155.529z M111.206,111.949
			c20.833-18.48,44.841-32.676,70.754-41.997c-11.797,10.726-22.715,24.114-32.461,39.979c-4.302,7.002-8.297,14.366-11.977,22.045
			C128.319,126.017,119.525,119.328,111.206,111.949z M37.765,284.533h69.586c0.987,42.322,8.896,82.719,22.855,117.758
			c-11.233,7.077-21.924,15.141-31.963,24.147C62.62,389.217,40.01,339.457,37.765,284.533z M111.297,438.984
			c8.293-7.348,17.058-14.009,26.227-19.949c3.679,7.677,7.673,15.038,11.973,22.037c9.726,15.832,20.619,29.197,32.387,39.914
			C155.668,471.501,131.776,457.13,111.297,438.984z M246.971,493.412c-30.724-3.553-59.589-25.173-82.084-61.791
			c-4.234-6.894-8.147-14.177-11.739-21.788c28.716-15.359,60.652-24.117,93.823-25.464V493.412z M246.971,266.473h-54.63
			c-4.987,0-9.03,4.043-9.03,9.03s4.043,9.03,9.03,9.03h54.63v81.765c-35.656,1.338-70.016,10.573-100.968,26.868
			c-12.525-32.348-19.638-69.563-20.589-108.633h36.827c4.987,0,9.03-4.043,9.03-9.03s-4.043-9.03-9.03-9.03h-36.827
			c0.951-39.068,8.063-76.28,20.587-108.626c30.954,16.296,65.314,25.531,100.971,26.869V266.473z M246.971,166.647
			c-33.172-1.348-65.111-10.106-93.827-25.466c3.593-7.614,7.506-14.899,11.742-21.795c22.495-36.62,51.36-58.24,82.084-61.791
			V166.647z M330.118,480.987c11.786-10.732,22.695-24.123,32.434-39.989c2.607-4.25,1.276-9.81-2.974-12.419
			c-4.252-2.609-9.811-1.277-12.419,2.973c-22.502,36.662-51.383,58.306-82.128,61.86V384.368
			c50.395,2.047,97.951,21.193,135.673,54.618C380.227,457.133,356.334,471.502,330.118,480.987z M413.757,426.439
			c-41.199-36.957-93.402-58.066-148.726-60.141v-81.765h121.555c-0.753,31.129-5.388,60.981-13.835,88.854
			c-1.446,4.773,1.251,9.814,6.022,11.261c0.873,0.265,1.755,0.39,2.622,0.39c3.874,0,7.456-2.514,8.638-6.414
			c8.959-29.563,13.858-61.177,14.616-94.091h69.587C471.993,339.458,449.383,389.219,413.757,426.439z"/>
	</g>
</g>
<g>
	<g>
		<path d="M452.242,64.892C442.479,20.065,404.423,0,371.039,0c-33.384,0-71.439,20.065-81.202,64.892
			c-1.838,8.442-2.771,17.141-2.771,25.854c0,51.348,32.547,97.246,80.989,114.212c0.966,0.338,1.976,0.507,2.985,0.507
			c1.009,0,2.019-0.17,2.985-0.507c48.442-16.966,80.989-62.865,80.989-114.212C455.013,82.032,454.081,73.335,452.242,64.892z
			 M371.039,186.815c-39.555-15.241-65.914-53.449-65.914-96.07c0-7.422,0.793-14.828,2.357-22.011
			c8.146-37.404,39.329-50.675,63.556-50.675c24.227,0,55.41,13.271,63.556,50.675c1.564,7.183,2.357,14.589,2.357,22.011
			C436.953,133.366,410.596,171.575,371.039,186.815z"/>
	</g>
</g>
<g>
	<g>
		<path d="M371.039,43.191c-22.903,0-41.536,18.633-41.536,41.536c0,22.903,18.633,41.536,41.536,41.536
			c22.902,0,41.536-18.633,41.536-41.536C412.575,61.824,393.942,43.191,371.039,43.191z M371.039,108.203
			c-12.945,0-23.476-10.531-23.476-23.476s10.531-23.476,23.476-23.476c12.944,0,23.476,10.531,23.476,23.476
			C394.515,97.671,383.984,108.203,371.039,108.203z"/>
	</g>
</g>
</svg>