<svg width="33" height="32" viewBox="0 0 33 32" fill="none" xmlns="http://www.w3.org/2000/svg">
<g id="mdi:location">
<path id="Vector" d="M16.7498 15.3327C15.8658 15.3327 15.0179 14.9815 14.3928 14.3564C13.7677 13.7313 13.4165 12.8834 13.4165 11.9993C13.4165 11.1153 13.7677 10.2674 14.3928 9.64233C15.0179 9.01721 15.8658 8.66602 16.7498 8.66602C17.6339 8.66602 18.4817 9.01721 19.1069 9.64233C19.732 10.2674 20.0832 11.1153 20.0832 11.9993C20.0832 12.4371 19.997 12.8705 19.8294 13.275C19.6619 13.6794 19.4164 14.0468 19.1069 14.3564C18.7973 14.6659 18.4299 14.9114 18.0254 15.0789C17.621 15.2465 17.1876 15.3327 16.7498 15.3327ZM16.7498 2.66602C14.2745 2.66602 11.9005 3.64935 10.1502 5.39969C8.39983 7.15003 7.4165 9.524 7.4165 11.9993C7.4165 18.9993 16.7498 29.3327 16.7498 29.3327C16.7498 29.3327 26.0832 18.9993 26.0832 11.9993C26.0832 9.524 25.0998 7.15003 23.3495 5.39969C21.5992 3.64935 19.2252 2.66602 16.7498 2.66602Z" fill="white"/>
</g>
</svg>
