<svg width="24" height="24" viewBox="0 0 24 24" fill="none" xmlns="http://www.w3.org/2000/svg">
<g id="f7:phone-fill">
<path id="Vector" d="M7.78119 16.1841C10.6843 19.0868 14.22 21.327 17.1026 21.327C18.3986 21.327 19.5335 20.8748 20.4476 19.8703C20.9799 19.2775 21.3116 18.5845 21.3116 17.9018C21.3116 17.3995 21.1205 16.9174 20.6388 16.5758L17.5646 14.3858C17.0928 14.0644 16.701 13.9037 16.3393 13.9037C15.8773 13.9037 15.4753 14.1651 15.0133 14.6168L14.3002 15.3201C14.1994 15.4221 14.0622 15.4799 13.9188 15.4808C13.758 15.4808 13.617 15.4208 13.5069 15.3703C12.894 15.039 11.8295 14.1248 10.8348 13.1404C9.85033 12.156 8.93619 11.0914 8.61476 10.4687C8.54538 10.3459 8.50754 10.2077 8.50462 10.0667C8.50462 9.9364 8.54448 9.80526 8.65505 9.69511L9.3579 8.96226C9.81048 8.49983 10.0715 8.09783 10.0715 7.63583C10.0715 7.27454 9.91076 6.88283 9.57948 6.41054L7.41948 3.36683C7.06805 2.88469 6.57605 2.67383 6.03348 2.67383C5.37048 2.67383 4.67748 2.97511 4.09505 3.54811C3.12048 4.4824 2.68848 5.63697 2.68848 6.9124C2.68848 9.7954 4.88833 13.2913 7.78119 16.1841Z" fill="white"/>
</g>
</svg>
